<svg width="1440" height="808" viewBox="0 0 1440 808" fill="none" xmlns="http://www.w3.org/2000/svg">
<path d="M266.031 553.749L346.326 424.356L283.376 465.117L250.473 401.67L239.329 466.232L227.072 426.061L228.522 501.449L161.481 461.233L236.381 562.796L266.031 553.749Z" fill="#CFE4EC" fill-opacity="0.2"/>
<path d="M838.743 548.976L920.155 640.7L864.623 616.951L847.179 671.805L829.511 622.086L825.273 655.644L816.121 595.612L768.408 636.693L813.974 545.848L838.743 548.976Z" fill="#CFE4EC" fill-opacity="0.2"/>
<path d="M1419.15 509.416L1463.86 556.208L1472.93 641.43L1492.07 656.527L1512.9 648.115L1553.17 556.569L1546.7 518.65L1499.67 481.554L1535.59 500.125L1594.14 487.754L1661.7 488.701L1682.56 433.528L1708.82 380.754L1635.14 434.14L1623.98 401.811L1592.15 394.072L1556.92 405.973L1549.29 371.465L1485.85 402.349L1431.31 427.637L1415.83 438.492L1391.04 456.199L1346.27 463.47L1419.15 509.416Z" fill="#CFE4EC" fill-opacity="0.7"/>
<path d="M1272.79 534.143L1419.15 509.416L1346.27 463.47L1331.18 482.612L1288.08 495.637L1272.79 534.143Z" fill="#CFE4EC" fill-opacity="0.7"/>
<path d="M1318.28 457.355L1276.97 458.832L1252.56 518.183L1272.79 534.143L1288.08 495.637L1331.18 482.612L1346.27 463.47L1318.28 457.355Z" fill="#CFE4EC" fill-opacity="0.7"/>
<path d="M1231.16 349.612L1206.96 372.082L1201.66 456.748L1224.3 459.528L1276.97 458.832L1318.28 457.355L1346.27 463.47L1326.31 447.727L1306.35 431.983L1301.16 404.823L1280.38 388.433L1246.66 342.325L1231.16 349.612Z" fill="#CFE4EC" fill-opacity="0.7"/>
<path d="M1431.31 427.637L1485.85 402.349L1558.02 345.719L1573.24 300.041L1595.53 273.951L1563.51 274.647L1586.83 232.425L1520.49 276.04L1479.84 247.329L1463.81 308.849L1416.76 258.257L1374.97 269.22L1434.2 208.35L1357.69 211.673L1408.53 186.414L1345.54 155.672L1330.26 119.557L1298.47 100.423L1279.43 44.0515L1253.24 129.287L1296.33 202.04L1255.67 212.814L1258.62 246.189L1211.58 209.094L1161.18 166.041L1169.47 221.077L1122.18 240.549L1110.96 254.769L1144.46 269.657L1197.84 280.71L1231.16 349.612L1246.66 342.325L1280.38 388.433L1301.16 404.823L1306.35 431.983L1326.31 447.727L1346.27 463.47L1391.04 456.199L1415.83 438.492L1431.31 427.637Z" fill="#CFE4EC" fill-opacity="0.7"/>
<path d="M1406.5 482.298L1458.16 521.277L1480.85 603.923L1502.17 615.738L1521.38 604.081L1546.37 507.244L1533.88 470.861L1481.49 441.828L1519.93 454.369L1575.71 432.727L1642.54 422.776L1654.24 364.963L1671.66 308.647L1607.55 373.207L1591.33 343.097L1558.66 340.589L1525.8 358.011L1512.72 325.182L1455.09 365.883L1405.33 399.628L1391.8 412.835L1370.19 434.305L1327.18 448.694L1406.5 482.298Z" fill="#CFE4EC" fill-opacity="0.7"/>
<path d="M1266.04 530.282L1406.5 482.298L1327.18 448.694L1315.36 470.018L1274.93 489.816L1266.04 530.282Z" fill="#CFE4EC" fill-opacity="0.7"/>
<path d="M1298.56 447.17L1258.03 455.282L1243.5 517.791L1266.04 530.282L1274.93 489.816L1315.36 470.018L1327.18 448.694L1298.56 447.17Z" fill="#CFE4EC" fill-opacity="0.7"/>
<path d="M1195.22 354.87L1174.96 380.946L1183.37 465.359L1206.17 464.454L1258.03 455.282L1298.56 447.17L1327.18 448.694L1304.94 436.372L1282.7 424.05L1273.2 398.082L1250.05 385.253L1209.35 345.18L1195.22 354.87Z" fill="#CFE4EC" fill-opacity="0.7"/>
<path d="M1405.33 399.628L1455.09 365.883L1517.18 298.366L1524.85 250.832L1542.64 221.493L1511.15 227.338L1527.37 181.91L1468.92 235.643L1424.17 213.857L1418.27 277.156L1363.68 234.806L1324.21 252.358L1372.86 182.74L1297.88 198.346L1343.98 165.228L1276.86 145.036L1255.96 111.854L1221.5 98.0923L1193.64 45.5238L1181.52 133.866L1235.77 198.726L1197.37 215.91L1205.66 248.374L1153.26 219.341L1096.59 184.971L1113.63 237.952L1070.1 264.79L1061.32 280.63L1096.78 289.927L1151.24 292.236L1195.22 354.87L1209.35 345.18L1250.05 385.253L1273.2 398.082L1282.7 424.05L1304.94 436.372L1327.18 448.694L1370.19 434.305L1391.8 412.835L1405.33 399.628Z" fill="#CFE4EC" fill-opacity="0.7"/>
<path d="M992.5 575C369.5 446 -29.5237 641.974 -39.4648 807.876L-65.9995 722.919C320.035 402.376 880.416 540.13 1015.5 556C1150.58 571.87 1207 533.5 1274 495L1303 523.081C1217 549.5 1173.5 594.5 992.5 575Z" fill="#CFE4EC" fill-opacity="0.2"/>
</svg>
