<svg width="1369" height="889" viewBox="0 0 1369 889" fill="none" xmlns="http://www.w3.org/2000/svg">
<path d="M0.78125 156.129L21.7812 201.686L8.00852 297.669L39.0858 358.318L215.431 369.186L355.64 343.824L464.049 386.686H636.781L673.281 258.186L636.781 140.186H464.049L325.078 166.915L215.431 156.129H0.78125Z" fill="white" stroke="#142F57"/>
<path d="M1299.28 387.765L1243.28 324.185L1298.28 149.186L1053.78 149.185L915.282 100.185L815.782 140.186L670.28 140.186L698.78 252.107L661.781 387.36L788.282 370.185L902.78 387.36L960.282 334.185L1299.28 387.765Z" fill="white" stroke="#142F57"/>
<path d="M660.779 414.649L693.779 513.687L596.779 578.187L616.78 650.185L860.279 594.186L948.579 645.509L1103.78 578.187L1298.78 632.765L1230.78 500.185L1298.78 411.765L979.279 360.686L911.279 414.649L789.779 400.186L660.779 414.649Z" fill="white" stroke="#142F57"/>
<path d="M544.478 408.163L534.372 402.213L532 394.875C532 394.875 519.414 392.733 512.091 389.344C504.767 385.955 498.216 380.739 492.906 375.683C487.597 370.627 484.745 367.5 480.859 361.283C476.974 355.065 471.366 336.014 471.366 336.014L488.923 353.483L503.535 366.354L513.072 374.806L537.036 384.618L514.357 371.666L500.915 359.37L490.403 341.844L488.312 326.634L488.386 315.639L497.2 325.243L493.939 310.243L497.351 311.918L498.72 301.216L501.933 314.167L509.681 309.939L506.6 336.181L517.07 341.24L525.003 349.981L523.775 333.012L532.175 328.153L541.262 310.275L542.111 328.194L548.321 306.895L555.939 332.558L551.161 344.227L561.21 358.542L580.934 352.596L589.466 342.61L612.787 324.467L603.076 348.183L615.353 334.343L610.977 360.422L616.014 368.261L611.394 379.543L629.023 379.222L652.736 364.283L646.524 379.454L658.998 369.419L652.538 385.194L661.721 392.612L658.508 399.157L652.243 399.597L629.11 399.996C629.11 399.996 636.318 404.561 641.534 405.695C646.75 406.829 667.745 399.812 667.745 399.812L655.864 410.951C655.864 410.951 644.481 415.644 636.809 417.235C629.136 418.825 623.954 419.799 615.732 419.01C607.51 418.222 600.063 412.962 594.945 413.048C589.827 413.134 587.204 415.536 582.085 415.584C576.967 415.632 568.163 408.446 564.526 410.816C560.89 413.185 555.969 418.935 555.969 418.935L549.327 416.215L550.517 410.636L544.478 408.163Z" fill="#142F57"/>
<path d="M220.28 390.686L52.9829 383.707L0.780457 503.977L12.9611 649.186L165.781 603.186L318.281 658.186L589.28 649.186L565.789 570.06L665.844 503.977L631.781 414.417H459.28L356.28 370.186L220.28 390.686Z" fill="white" stroke="#142F57"/>
<path d="M1056.6 152.551L1079.21 161.308L1095.84 188.765L1104.73 190.84L1110.46 184.674L1109.55 147.223L1101.33 135.392L1079.48 130.294L1094.61 130.878L1112.5 117.37L1135.56 106.944L1133.86 84.9153L1134.37 62.8405L1117.88 92.6654L1108.95 83.4764L1096.92 85.9159L1086.87 95.5567L1078.79 85.0674L1062.19 105.632L1047.72 122.883L1044.19 129.027L1038.6 138.975L1024.58 148.562L1056.6 152.551Z" fill="#142F57"/>
<path d="M1010.9 184.217L1056.6 152.551L1024.58 148.562L1022.51 157.455L1009.96 168.727L1010.9 184.217Z" fill="#142F57"/>
<path d="M1014.11 150.942L1000.34 158.013L1001.5 182.024L1010.9 184.217L1009.96 168.727L1022.51 157.455L1024.58 148.562L1014.11 150.942Z" fill="#142F57"/>
<path d="M967.43 128.262L962.798 139.731L974.468 169.286L982.59 166.627L1000.34 158.013L1014.11 150.942L1024.58 148.562L1015.31 146.398L1006.03 144.234L999.952 135.85L990.297 133.597L971.529 123.324L967.43 128.262Z" fill="#142F57"/>
<path d="M1047.72 122.883L1062.19 105.632L1077.66 74.9478L1075.55 57.0354L1078.96 44.6429L1068.21 49.9723L1069.41 31.9442L1053.85 57.2872L1035.49 54.0178L1039.84 77.4301L1015.84 67.7579L1003.41 78.1222L1013.82 48.0579L988.399 61.3553L1001.62 44.7039L975.368 44.2984L964.442 34.4814L950.617 33.0496L935.195 16.9607L939.871 50.0323L966.056 67.8504L953.981 77.972L960.29 88.821L938.44 83.7227L914.499 77.1398L926.065 94.4849L913.124 108.612L911.583 115.217L925.311 114.938L945.172 110.195L967.43 128.262L971.529 123.324L990.297 133.597L999.952 135.85L1006.03 144.234L1015.31 146.398L1024.58 148.562L1038.6 138.975L1044.19 129.027L1047.72 122.883Z" fill="#142F57"/>
</svg>
