<svg width="1440" height="293" viewBox="0 0 1440 293" fill="none" xmlns="http://www.w3.org/2000/svg">
<path d="M253.16 141.41L339.532 116.486L380.587 147.598L294.007 162.367L253.253 192.891L253.16 141.41Z" fill="white" fill-opacity="0.7"/>
<path d="M177.347 216.671L26.2399 221.512L-28.0002 153.569L119.29 165.419L198.269 132.453L177.347 216.671Z" fill="white" fill-opacity="0.7"/>
<path d="M141.892 139.212L196.572 81.1427L276.414 113.489L234.934 133.509L235.283 170.433L206.144 114.153L141.892 139.212Z" fill="white" fill-opacity="0.7"/>
<path d="M205.991 137.2L193.331 214.453L266.158 257.404L257.028 213.13L286.02 191.383L224.772 202.23L205.991 137.2Z" fill="white" fill-opacity="0.7"/>
<path d="M467.967 26.7738L491.058 141.132L384.953 209.091L396.122 142.654L351.753 111.857L443.563 124.652L467.967 26.7738Z" fill="white" fill-opacity="0.7"/>
<path d="M87.0613 42.9965L35.1678 145.408L120.967 152.685L87.0613 42.9965Z" fill="white" fill-opacity="0.7"/>
<path d="M131.486 139.694L175.102 63.3183L101.356 57.0641L131.486 139.694Z" fill="white" fill-opacity="0.7"/>
<path d="M387.715 214.884L472.261 239.122L460.83 166L387.715 214.884Z" fill="white" fill-opacity="0.7"/>
<path d="M474.441 209.339L467.451 164.041L504.506 174.743L474.441 209.339Z" fill="white" fill-opacity="0.7"/>
<path d="M300.442 182.211L371.967 233.394L385.715 160.671L300.442 182.211Z" fill="white" fill-opacity="0.7"/>
<path d="M773.16 141.41L859.532 116.486L900.587 147.598L814.007 162.367L773.253 192.891L773.16 141.41Z" fill="white" fill-opacity="0.7"/>
<path d="M545.743 148.819L583.908 67.4268L559.622 21.9995L531.453 105.191L494.914 140.651L545.743 148.819Z" fill="white" fill-opacity="0.7"/>
<path d="M24.7431 138.819L62.9078 57.4268L38.6224 11.9995L10.4534 95.1907L-26.0857 130.651L24.7431 138.819Z" fill="white" fill-opacity="0.7"/>
<path d="M697.347 216.671L546.24 221.512L492 153.569L639.29 165.419L718.269 132.453L697.347 216.671Z" fill="white" fill-opacity="0.7"/>
<path d="M661.892 139.212L716.572 81.1427L796.414 113.489L754.934 133.509L755.283 170.433L726.144 114.153L661.892 139.212Z" fill="white" fill-opacity="0.7"/>
<path d="M725.991 137.2L713.331 214.453L786.158 257.404L777.028 213.13L806.02 191.383L744.772 202.23L725.991 137.2Z" fill="white" fill-opacity="0.7"/>
<path d="M987.967 26.7738L1011.06 141.132L904.953 209.091L916.122 142.654L871.753 111.857L963.563 124.652L987.967 26.7738Z" fill="white" fill-opacity="0.7"/>
<path d="M607.065 42.9965L555.172 145.408L640.971 152.685L607.065 42.9965Z" fill="white" fill-opacity="0.7"/>
<path d="M651.486 139.694L695.102 63.3183L621.356 57.0641L651.486 139.694Z" fill="white" fill-opacity="0.7"/>
<path d="M936.082 202.534L1020.63 226.773L1009.2 153.65L936.082 202.534Z" fill="white" fill-opacity="0.7"/>
<path d="M820.442 182.211L891.967 233.394L905.715 160.671L820.442 182.211Z" fill="white" fill-opacity="0.7"/>
<path d="M309.798 238.334L269.36 219.861L297.779 195.532L309.798 238.334Z" fill="white" fill-opacity="0.7"/>
<path d="M1290.16 153.41L1376.53 128.486L1417.59 159.598L1331.01 174.367L1290.25 204.891L1290.16 153.41Z" fill="white" fill-opacity="0.7"/>
<path d="M1214.35 228.671L1063.24 233.512L1009 165.569L1156.29 177.419L1235.27 144.453L1214.35 228.671Z" fill="white" fill-opacity="0.7"/>
<path d="M1178.89 151.212L1233.57 93.1427L1313.41 125.489L1271.93 145.509L1272.28 182.433L1243.14 126.153L1178.89 151.212Z" fill="white" fill-opacity="0.7"/>
<path d="M1242.99 149.2L1230.33 226.453L1303.16 269.404L1294.03 225.13L1323.02 203.383L1261.77 214.23L1242.99 149.2Z" fill="white" fill-opacity="0.7"/>
<path d="M1504.97 38.7738L1528.06 153.132L1421.95 221.091L1433.12 154.654L1388.75 123.857L1480.56 136.652L1504.97 38.7738Z" fill="white" fill-opacity="0.7"/>
<path d="M1124.06 54.9965L1072.17 157.408L1157.97 164.685L1124.06 54.9965Z" fill="white" fill-opacity="0.7"/>
<path d="M1168.49 151.694L1212.1 75.3183L1138.36 69.0641L1168.49 151.694Z" fill="white" fill-opacity="0.7"/>
<path d="M1424.72 226.884L1509.26 251.122L1497.83 178L1424.72 226.884Z" fill="white" fill-opacity="0.7"/>
<path d="M1337.44 194.211L1408.97 245.394L1422.72 172.671L1337.44 194.211Z" fill="white" fill-opacity="0.7"/>
<path d="M1061.74 150.819L1099.91 69.4268L1075.62 23.9995L1047.45 107.191L1010.91 142.651L1061.74 150.819Z" fill="white" fill-opacity="0.7"/>
<path d="M1346.8 250.334L1306.36 231.861L1334.78 207.532L1346.8 250.334Z" fill="white" fill-opacity="0.7"/>
</svg>
