<svg width="1432" height="277" viewBox="0 0 1432 277" fill="none" xmlns="http://www.w3.org/2000/svg">
<path d="M55.419 132.191L69.2854 194.373L12.1035 232.645L17.4698 196.25L-7.09353 179.924L43.1731 185.898L55.419 132.191Z" fill="#E1EDF2"/>
<path d="M1340.7 189.73L1351.17 236.67L1308 265.561L1312.05 238.087L1293.51 225.763L1331.46 230.273L1340.7 189.73Z" fill="#E1EDF2"/>
<path d="M78.1703 115.655L73.8551 91L94.2039 96.4349L78.1703 115.655Z" fill="#E1EDF2"/>
<path d="M297.239 229.613L326.453 197.307L370.401 214.087L347.974 225.475L348.571 245.63L332.043 215.224L297.239 229.613Z" fill="#E1EDF2"/>
<path d="M74.201 1.51348L46.9965 57.9991L93.9207 61.0268L74.201 1.51348Z" fill="#E1EDF2"/>
<path d="M114.165 189.823L137.137 147.644L96.8046 145.041L114.165 189.823Z" fill="#E1EDF2"/>
<path d="M24.1244 121.875L-51.6831 89.1745L-62.7119 42.9979L7.33289 83.0608L54.0236 85.1096L24.1244 121.875Z" fill="#E1EDF2"/>
<path d="M141.512 60.5154L114.307 117.001L161.231 120.029L141.512 60.5154Z" fill="#E1EDF2"/>
<path d="M1312.36 166.171L1273.05 185.62L1297.63 207.486L1312.36 166.171Z" fill="#E1EDF2"/>
<path d="M262.4 200.487L285.372 158.308L245.04 155.705L262.4 200.487Z" fill="#E1EDF2"/>
<path d="M204.11 201.185L224.051 156.327L210.291 131.792L195.828 177.522L176.269 197.285L204.11 201.185Z" fill="#E1EDF2"/>
<path d="M1117.02 269.6L1163.33 253.318L1171.73 226.473L1128.55 247.337L1100.75 246.674L1117.02 269.6Z" fill="#E1EDF2"/>
<path d="M1393.4 198.403L1413.34 153.544L1399.58 129.01L1385.12 174.74L1365.56 194.503L1393.4 198.403Z" fill="#E1EDF2"/>
</svg>
