<svg width="1369" height="864" viewBox="0 0 1369 864" fill="none" xmlns="http://www.w3.org/2000/svg">
<path d="M1 131.364L22 176.921L8.22727 272.904L39.3045 333.553L215.65 344.421L355.859 319.059L464.268 361.921H637L673.5 233.421L637 115.421H464.268L325.297 142.15L215.65 131.364H1Z" fill="white" stroke="#142F57"/>
<path d="M1299.5 363L1243.5 299.419L1298.5 124.421L1054 124.42L915.5 75.4195L816 115.421L670.499 115.421L698.999 227.342L662 362.594L788.5 345.419L902.999 362.594L960.5 309.419L1299.5 363Z" fill="white" stroke="#142F57"/>
<path d="M660.999 389.884L693.999 488.921L596.999 553.421L617 625.42L860.499 569.421L948.798 620.744L1104 553.421L1299 608L1231 475.42L1299 387L979.499 335.921L911.499 389.884L789.999 375.421L660.999 389.884Z" fill="white" stroke="#142F57"/>
<path d="M544.696 383.397L534.591 377.447L532.219 370.11C532.219 370.11 519.633 367.968 512.31 364.579C504.986 361.19 498.434 355.974 493.125 350.918C487.815 345.861 484.964 342.735 481.078 336.518C477.192 330.3 471.585 311.249 471.585 311.249L489.142 328.718L503.754 341.589L513.29 350.04L537.254 359.853L514.576 346.901L501.133 334.605L490.621 317.079L488.53 301.869L488.605 290.874L497.419 300.478L494.158 285.477L497.57 287.153L498.939 276.451L502.152 289.402L509.9 285.174L506.819 311.415L517.289 316.475L525.222 325.216L523.994 308.247L532.394 303.388L541.481 285.51L542.33 303.429L548.539 282.13L556.158 307.793L551.38 319.461L561.429 333.777L581.153 327.83L589.685 317.845L613.006 299.702L603.295 323.418L615.571 309.578L611.196 335.657L616.233 343.496L611.613 354.778L629.242 354.457L652.955 339.518L646.743 354.689L659.217 344.654L652.757 360.429L661.94 367.847L658.727 374.392L652.462 374.831L629.329 375.231C629.329 375.231 636.536 379.796 641.753 380.93C646.969 382.064 667.963 375.047 667.963 375.047L656.083 386.186C656.083 386.186 644.7 390.879 637.027 392.469C629.355 394.06 624.173 395.033 615.951 394.245C607.728 393.456 600.282 388.197 595.164 388.283C590.046 388.369 587.423 390.771 582.304 390.819C577.186 390.867 568.381 383.681 564.745 386.051C561.108 388.42 556.188 394.17 556.188 394.17L549.545 391.45L550.736 385.871L544.696 383.397Z" fill="#142F57"/>
<path d="M1034.29 118.847L1051.9 125.67L1064.86 147.06L1071.79 148.677L1076.25 143.874L1075.54 114.697L1069.13 105.48L1052.11 101.508L1063.9 101.963L1077.84 91.4389L1095.8 83.3166L1094.48 66.1548L1094.88 48.957L1082.03 72.1926L1075.07 65.0338L1065.7 66.9343L1057.87 74.4451L1051.58 66.2732L1038.64 82.2942L1027.37 95.7345L1024.62 100.521L1020.27 108.271L1009.34 115.74L1034.29 118.847Z" fill="#142F57"/>
<path d="M998.686 143.518L1034.29 118.847L1009.34 115.74L1007.73 122.668L997.954 131.45L998.686 143.518Z" fill="#142F57"/>
<path d="M1001.19 117.594L990.457 123.103L991.362 141.809L998.686 143.518L997.954 131.45L1007.73 122.668L1009.34 115.74L1001.19 117.594Z" fill="#142F57"/>
<path d="M964.818 99.9246L961.209 108.86L970.301 131.885L976.629 129.814L990.457 123.103L1001.19 117.594L1009.34 115.74L1002.12 114.054L994.892 112.368L990.155 105.836L982.633 104.081L968.012 96.0779L964.818 99.9246Z" fill="#142F57"/>
<path d="M1027.37 95.7345L1038.64 82.2942L1050.69 58.3894L1049.05 44.4344L1051.71 34.7798L1043.33 38.9318L1044.26 24.8867L1032.14 44.6306L1017.84 42.0835L1021.23 60.3233L1002.53 52.7879L992.852 60.8625L1000.96 37.4403L981.155 47.7999L991.454 34.8274L971.003 34.5114L962.49 26.8634L951.72 25.7479L939.705 13.2135L943.348 38.9786L963.748 52.86L954.34 60.7454L959.256 69.1975L942.233 65.2256L923.582 60.0971L932.592 73.6101L922.511 84.6157L921.31 89.7622L932.005 89.5444L947.478 85.8494L964.818 99.9246L968.012 96.0779L982.633 104.081L990.155 105.836L994.892 112.368L1002.12 114.054L1009.34 115.74L1020.27 108.271L1024.62 100.521L1027.37 95.7345Z" fill="#142F57"/>
<path d="M220.499 365.921L53.2017 358.942L0.999207 479.212L13.1798 624.421L166 578.421L318.5 633.421L589.499 624.421L566.008 545.295L666.062 479.212L632 389.652H459.499L356.499 345.421L220.499 365.921Z" fill="white" stroke="#142F57"/>
</svg>
