<svg width="1440" height="1073" viewBox="0 0 1440 1073" fill="none" xmlns="http://www.w3.org/2000/svg">
<path d="M50.1742 887.717L45.859 912.372L66.2078 906.937L50.1742 887.717Z" fill="white" fill-opacity="0.7"/>
<path d="M342.934 788.523L372.148 820.829L416.096 804.048L393.669 792.661L394.267 772.506L377.738 802.912L342.934 788.523Z" fill="white" fill-opacity="0.7"/>
<path d="M108.204 975.513L80.9995 919.027L127.924 916L108.204 975.513Z" fill="white" fill-opacity="0.7"/>
<path d="M140.707 830.854L176.672 862.686L139.639 878.871L140.707 830.854Z" fill="white" fill-opacity="0.7"/>
<path d="M27.1244 906.239L-48.6831 938.939L-59.7119 985.116L10.3329 945.053L57.0236 943.004L27.1244 906.239Z" fill="white" fill-opacity="0.7"/>
<path d="M248.011 898.381L209.538 899.91L197 918.159L234.199 912.46L254.863 919.392L248.011 898.381Z" fill="white" fill-opacity="0.7"/>
<path d="M173.205 944.513L146 888.028L192.925 885L173.205 944.513Z" fill="white" fill-opacity="0.7"/>
<path d="M1207.29 874.195L1193.42 936.377L1250.6 974.65L1245.24 938.254L1269.8 921.929L1219.53 927.903L1207.29 874.195Z" fill="white" fill-opacity="0.7"/>
<path d="M1247.84 881.659L1252.16 857.004L1231.81 862.439L1247.84 881.659Z" fill="white" fill-opacity="0.7"/>
<path d="M1353.08 950.596L1323.87 918.289L1279.92 935.07L1302.34 946.458L1301.75 966.613L1318.28 936.207L1353.08 950.596Z" fill="white" fill-opacity="0.7"/>
<path d="M1251.81 767.518L1279.02 824.003L1232.09 827.031L1251.81 767.518Z" fill="white" fill-opacity="0.7"/>
<path d="M1153.97 974.782L1131 932.602L1171.33 930L1153.97 974.782Z" fill="white" fill-opacity="0.7"/>
<path d="M1301.89 887.879L1377.69 855.179L1388.72 809.002L1318.68 849.065L1271.99 851.114L1301.89 887.879Z" fill="white" fill-opacity="0.7"/>
<path d="M1141.81 828.519L1169.02 885.004L1122.09 888.032L1141.81 828.519Z" fill="white" fill-opacity="0.7"/>
<path d="M1020.92 968.493L997.951 926.313L1038.28 923.711L1020.92 968.493Z" fill="white" fill-opacity="0.7"/>
<path d="M1096.75 974.393L1076.81 929.535L1090.57 905L1105.04 950.73L1124.59 970.493L1096.75 974.393Z" fill="white" fill-opacity="0.7"/>
<path d="M930.04 929.79L956.28 948.43L956.718 966.869L933.276 945.906L915.638 941.294L930.04 929.79Z" fill="white" fill-opacity="0.7"/>
<path d="M1102.65 864.39L1061.93 822.042L1024.6 821.082L995.844 816.324L960.029 822.647C960.029 822.647 940.752 832.134 936.546 843.713C933.164 853.025 934.611 859.609 937.579 869.061C940.219 877.469 943.519 881.655 949.143 888.44C961.124 902.893 972.62 906.9 990.238 913.386C1007.49 919.738 1018.3 921.157 1036.69 921.071C1053.68 920.991 1064.35 921.506 1079.65 914.116C1091.87 908.218 1106.67 892.287 1106.67 892.287L1102.65 864.39Z" fill="url(#paint0_linear_570_56)" fill-opacity="0.7"/>
<path d="M1061.93 822.042L1102.65 864.39L1150.04 860.89L1160.64 850.413L1190.52 820.862L1169.26 798.29L1149.8 795.07L1130.33 791.849L1096.29 776.464L1061.56 770.718L1061.86 812.034L1061.93 822.042Z" fill="url(#paint1_linear_570_56)" fill-opacity="0.7"/>
<path d="M1150.04 860.89L1102.65 864.39L1106.67 892.287L1109.95 915.046C1109.95 915.046 1122.64 938.974 1135.25 950.307C1147.03 960.904 1154.9 966.908 1170.25 970.842C1184.73 974.551 1195.4 977.537 1208.51 970.367C1212.25 968.318 1214.58 967.17 1217.31 963.884C1225.18 954.385 1214.79 932.392 1214.79 932.392L1205.66 913.416L1165.7 881.627L1150.04 860.89Z" fill="url(#paint2_linear_570_56)" fill-opacity="0.7"/>
<path d="M1165.7 881.627L1205.66 913.416L1253.28 915.397L1303.54 909.65L1323.01 897.754L1341.15 892.509L1330.07 878.445L1297.99 873.139L1261.86 863.514L1235.17 855.921L1160.64 850.413L1150.04 860.89L1165.7 881.627Z" fill="url(#paint3_linear_570_56)" fill-opacity="0.7"/>
<path d="M1205.66 913.416L1214.79 932.392C1214.79 932.392 1229.06 944.15 1239.84 948.559C1252.89 953.896 1261.36 954.192 1275.45 954.451C1290.87 954.733 1301.17 956.561 1314.55 948.897C1320.68 945.385 1324.69 943.323 1328.5 937.369C1333.4 929.712 1332.3 914.408 1332.3 914.408L1323.01 897.754L1303.54 909.65L1253.28 915.397L1205.66 913.416Z" fill="url(#paint4_linear_570_56)" fill-opacity="0.7"/>
<path d="M1160.64 850.413L1235.17 855.921L1261.86 863.514L1305.92 848.574L1353.31 818.989L1395.39 773.101L1342.15 805.428L1335.64 782.38L1289.88 793.07L1270.23 814.996L1242.59 837.188L1216.55 847.623L1160.64 850.413Z" fill="url(#paint5_linear_570_56)" fill-opacity="0.7"/>
<path d="M1169.26 798.29L1190.52 820.862L1160.64 850.413L1216.55 847.623L1242.59 837.188L1270.23 814.996L1289.88 793.07L1292.55 776.953L1279.29 758.201L1231.63 756.44L1210.43 761.665L1189.23 766.889L1162.42 786.045L1149.8 795.07L1169.26 798.29Z" fill="url(#paint6_linear_570_56)" fill-opacity="0.7"/>
<path d="M1231.63 756.44L1279.29 758.201L1292.55 776.953L1289.88 793.07L1331.46 754.268L1337.16 719.826L1375.49 684.974L1324.08 695.055L1340.87 637.359L1301.84 720.765L1283.68 683.62L1247.63 733.909L1210.43 761.665L1231.63 756.44Z" fill="url(#paint7_linear_570_56)" fill-opacity="0.7"/>
<path d="M1189.23 766.889L1210.43 761.665L1247.63 733.909L1253.77 696.818L1233.22 683.892L1209.61 705.505L1188.69 680.834L1183.4 712.848L1163.09 714.705L1132.86 733.974L1146.35 736.206L1177.66 747.51L1179.72 765.316L1162.42 786.045L1189.23 766.889Z" fill="url(#paint8_linear_570_56)" fill-opacity="0.7"/>
<path d="M1096.29 776.464L1130.33 791.849L1149.8 795.07L1162.42 786.045L1179.72 765.316L1129.06 756.935L1092.06 733.348L1096.29 776.464Z" fill="url(#paint9_linear_570_56)" fill-opacity="0.7"/>
<path d="M1061.56 770.718L1096.29 776.464L1092.06 733.348L1129.06 756.935L1179.72 765.316L1177.66 747.51L1146.35 736.206L1132.86 733.974L1108.02 705.593L1112.65 677.594L1084.05 677.948L1095.41 652.47L1075.84 643.244L1044.96 666.395L1053.18 685.406L1063.44 718.178L1064.05 755.705L1061.56 770.718Z" fill="url(#paint10_linear_570_56)" fill-opacity="0.7"/>
<path d="M1053.18 685.406L1044.96 666.395L1068.53 596.256L1040.67 608.601L1008.67 586.352L990.436 613.855L968.171 625.431L993.903 675.598L1016.67 690.478L1041.51 718.86L1064.05 755.705L1063.44 718.178L1053.18 685.406Z" fill="url(#paint11_linear_570_56)" fill-opacity="0.7"/>
<path d="M1061.56 770.718L1064.05 755.705L1041.51 718.86L1016.67 690.478L993.903 675.598L970.236 671.682L970.509 707.112L978.368 737.9L1001.83 780.116L1022.58 801.694L1061.86 812.034L1061.56 770.718Z" fill="url(#paint12_linear_570_56)" fill-opacity="0.7"/>
<path d="M1024.6 821.082L1061.93 822.042L1061.86 812.034L1022.58 801.694L1001.83 780.116L978.368 737.9L970.509 707.112L930.87 700.554L872.835 637.916L914.485 734.67L929.852 768.206L964.452 795.917L995.844 816.324L1024.6 821.082Z" fill="url(#paint13_linear_570_56)" fill-opacity="0.7"/>
<path d="M1140.18 854.744L1116.56 800.957L1081.84 787.186L1056.49 772.809L1020.69 766.399C1020.69 766.399 999.326 768.66 991.387 778.079C985.002 785.655 984.091 792.334 983.619 802.23C983.199 811.033 984.854 816.1 987.795 824.408C994.06 842.104 1003.47 849.828 1017.77 861.989C1031.78 873.9 1041.44 878.958 1058.73 885.215C1074.71 890.999 1084.54 895.157 1101.45 893.495C1114.95 892.17 1134.34 882.318 1134.34 882.318L1140.18 854.744Z" fill="url(#paint14_linear_570_56)" fill-opacity="0.7"/>
<path d="M1116.56 800.957L1140.18 854.744L1185.88 867.794L1199.43 861.612L1237.68 844.173L1225.5 815.656L1208.33 805.924L1191.17 796.191L1164.52 770.015L1133.9 752.651L1119.94 791.538L1116.56 800.957Z" fill="url(#paint15_linear_570_56)" fill-opacity="0.7"/>
<path d="M1185.88 867.794L1140.18 854.744L1134.34 882.318L1129.57 904.811C1129.57 904.811 1133.24 931.65 1141.17 946.632C1148.58 960.642 1153.89 968.99 1166.95 977.975C1179.26 986.445 1188.25 992.929 1203.03 990.716C1207.25 990.083 1209.83 989.808 1213.52 987.663C1224.18 981.46 1222.01 957.234 1222.01 957.234L1219.98 936.273L1193.43 892.657L1185.88 867.794Z" fill="url(#paint16_linear_570_56)" fill-opacity="0.7"/>
<path d="M1193.43 892.657L1219.98 936.273L1264 954.548L1313.16 966.478L1335.54 962.021L1354.37 963.349L1348.82 946.328L1320.54 930.292L1289.94 908.803L1267.5 892.474L1199.43 861.612L1185.88 867.794L1193.43 892.657Z" fill="url(#paint17_linear_570_56)" fill-opacity="0.7"/>
<path d="M1219.98 936.273L1222.01 957.234C1222.01 957.234 1231.36 973.191 1239.95 981.044C1250.36 990.551 1258.21 993.749 1271.35 998.85C1285.73 1004.43 1294.76 1009.69 1309.97 1007.11C1316.93 1005.93 1321.41 1005.38 1327.04 1001.1C1334.27 995.6 1338.52 980.856 1338.52 980.856L1335.54 962.021L1313.16 966.478L1264 954.548L1219.98 936.273Z" fill="url(#paint18_linear_570_56)" fill-opacity="0.7"/>
<path d="M1199.43 861.612L1267.5 892.474L1289.94 908.803L1336.45 909.965L1391.13 898.528L1446.45 869.958L1385.33 881.95L1387.16 858.07L1340.52 852.333L1314.52 866.143L1280.92 877.445L1252.88 878.264L1199.43 861.612Z" fill="url(#paint19_linear_570_56)" fill-opacity="0.7"/>
<path d="M1225.5 815.656L1237.68 844.173L1199.43 861.612L1252.88 878.264L1280.92 877.445L1314.52 866.143L1340.52 852.333L1348.58 838.123L1342.6 815.95L1298.47 797.87L1276.77 795.466L1255.06 793.062L1223.3 801.804L1208.33 805.924L1225.5 815.656Z" fill="url(#paint20_linear_570_56)" fill-opacity="0.7"/>
<path d="M1298.47 797.87L1342.6 815.95L1348.58 838.123L1340.52 852.333L1392.93 830.24L1410.15 799.873L1458.14 780.369L1406.41 772.114L1442.06 723.74L1376.68 788.583L1372.43 747.452L1321.26 782.235L1276.77 795.466L1298.47 797.87Z" fill="url(#paint21_linear_570_56)" fill-opacity="0.7"/>
<path d="M1255.06 793.062L1276.77 795.466L1321.26 782.235L1339.8 749.532L1324.97 730.316L1295.35 742.465L1284.23 712.097L1268.22 740.323L1248.52 735.067L1213.5 742.735L1225.39 749.481L1250.89 770.884L1246.68 788.306L1223.3 801.804L1255.06 793.062Z" fill="url(#paint22_linear_570_56)" fill-opacity="0.7"/>
<path d="M1164.52 770.015L1191.17 796.191L1208.33 805.924L1223.3 801.804L1246.68 788.306L1202.02 762.98L1175.41 728.083L1164.52 770.015Z" fill="url(#paint23_linear_570_56)" fill-opacity="0.7"/>
<path d="M1133.9 752.651L1164.52 770.015L1175.41 728.083L1202.02 762.98L1246.68 788.306L1250.89 770.884L1225.39 749.481L1213.5 742.735L1199.96 707.529L1213.96 682.843L1186.99 673.316L1206.43 653.316L1191.24 637.91L1154.28 649L1155.44 669.678L1153.77 703.977L1141.41 739.414L1133.9 752.651Z" fill="url(#paint24_linear_570_56)" fill-opacity="0.7"/>
<path d="M1155.44 669.678L1154.28 649L1200.58 591.282L1170.17 593.266L1147.8 561.351L1121.21 580.884L1096.32 584.076L1103.18 640.038L1119.42 661.852L1132.96 697.059L1141.41 739.414L1153.77 703.977L1155.44 669.678Z" fill="url(#paint25_linear_570_56)" fill-opacity="0.7"/>
<path d="M1133.9 752.651L1141.41 739.414L1132.96 697.059L1119.42 661.852L1103.18 640.038L1082.31 628.204L1070.35 661.557L1067.12 693.167L1074.6 740.885L1086.63 768.291L1119.94 791.538L1133.9 752.651Z" fill="url(#paint26_linear_570_56)" fill-opacity="0.7"/>
<path d="M1081.84 787.186L1116.56 800.957L1119.94 791.538L1086.63 768.291L1074.6 740.885L1067.12 693.167L1070.35 661.557L1035.41 641.737L1002.52 562.934L1008.26 668.115L1011.13 704.893L1034.06 742.832L1056.49 772.809L1081.84 787.186Z" fill="url(#paint27_linear_570_56)" fill-opacity="0.7"/>
<path d="M1156.5 509.5C1191 547.833 1242.2 677.5 1171 889.5" stroke="#CAB8FF" stroke-width="4"/>
<path d="M330.06 103.97L330.78 98.75L331.14 98.81L330.57 103.1C330.78 103.34 331.17 103.58 331.65 103.58C333.66 103.58 334.23 101.36 334.59 99.74C335.31 96.59 335.46 93.17 335.46 89.93H333V89.57H344.85V89.93H342.48V103.64H344.85V104H338.07V103.64H340.44V89.93H335.88C335.79 93.32 335.79 96.8 334.89 100.28C334.05 103.43 332.82 104.27 331.32 104.27C330.84 104.27 330.39 104.09 330.06 103.97ZM353.572 104.33C349.522 104.33 346.552 101.39 346.552 96.8C346.552 91.73 349.522 89.21 353.572 89.21C357.592 89.21 360.592 91.52 360.592 96.8C360.592 101.33 357.592 104.33 353.572 104.33ZM353.572 103.97C355.912 103.97 358.222 102.32 358.222 96.8C358.222 91.25 355.912 89.57 353.572 89.57C351.202 89.57 348.922 91.25 348.922 96.8C348.922 102.32 351.202 103.97 353.572 103.97ZM362.297 104V103.64H364.667V89.93H362.297V89.57H371.387V89.21H371.807L371.957 97.22H371.597L371.417 90.5C370.457 90.11 368.987 89.93 367.337 89.93H366.707V103.64H369.377V104H362.297ZM381.492 104.33C377.442 104.33 374.472 101.39 374.472 96.8C374.472 91.73 377.442 89.21 381.492 89.21C385.512 89.21 388.512 91.52 388.512 96.8C388.512 101.33 385.512 104.33 381.492 104.33ZM381.492 103.97C383.832 103.97 386.142 102.32 386.142 96.8C386.142 91.25 383.832 89.57 381.492 89.57C379.122 89.57 376.842 91.25 376.842 96.8C376.842 102.32 379.122 103.97 381.492 103.97Z" fill="black"/>
<path d="M1144.2 511.179L1132.98 515.343L1125.64 512.493C1125.64 512.493 1115.84 521.073 1108.44 524.685C1101.04 528.297 1092.69 530.121 1085.27 531.065C1077.85 532.009 1073.54 532.252 1066.11 531.321C1058.69 530.39 1040 522.553 1040 522.553L1065.13 519.914L1084.73 516.643L1097.57 514.542L1120.77 501.9L1095.91 511.502L1077.52 514.217L1056.88 511.244L1043.49 503.1L1034.84 495.957L1048.12 495.169L1034.15 488.086L1037.67 486.465L1030.08 478.486L1042.4 484.288L1044.05 475.432L1062.83 494.777L1073.58 489.751L1085.61 489.105L1071.39 479.144L1072.96 469.367L1064.66 450.657L1079.39 461.53L1066.53 442.893L1091.75 453.398L1097.91 464.697L1115.71 465.968L1123.71 446.527L1121.31 433.342L1121.98 403.198L1134.49 426.162L1131.44 407.53L1149.26 427.795L1158.71 428.86L1164.66 439.784L1175.77 425.627L1179.22 397.236L1187.23 411.926L1187.32 395.589L1195.64 410.865L1207.43 408.377L1210.54 415.137L1206.85 420.378L1192.26 438.942C1192.26 438.942 1200.52 436.18 1204.78 432.782C1209.04 429.385 1217.01 408.249 1217.01 408.249L1218.17 424.828C1218.17 424.828 1214.55 436.86 1210.87 443.956C1207.18 451.053 1204.61 455.781 1198.69 461.779C1192.77 467.778 1183.81 470.282 1180.58 474.388C1177.35 478.494 1177.56 482.118 1174.3 486.199C1171.04 490.281 1159.68 492.618 1159.22 497.023C1158.75 501.427 1160.13 509.026 1160.13 509.026L1153.7 512.53L1150.05 507.993L1144.2 511.179Z" fill="#CAB8FF"/>
<path d="M215.922 666.154C200.401 769.686 237.978 899.127 433.674 896.055L491.977 934.056C389.106 895.945 174.576 917.462 205.382 657.734L215.922 666.154Z" fill="white" fill-opacity="0.2"/>
<path d="M365.152 801.646L343.385 658.674L374.241 740.12L385.044 691.032L414 740.793L493.489 692.069L447.571 749.896L418.376 782.429L490.027 757.708L397.064 831.836L365.152 801.646Z" fill="white" fill-opacity="0.2"/>
<path d="M895 951.5C1061 944.167 1362.5 815.9 1240.5 361.5L1262 347C1310.17 522.667 1319.1 894.3 969.5 975.5L895 951.5Z" fill="white" fill-opacity="0.2"/>
<path d="M1323.95 683.357L1309.86 677.099L1305.66 667.868C1305.66 667.868 1288.89 666.958 1278.81 663.629C1268.74 660.3 1259.39 654.468 1251.7 648.658C1244 642.849 1239.81 639.192 1233.8 631.651C1227.79 624.111 1217.6 600.06 1217.6 600.06L1243.16 620.25L1264.19 634.874L1277.91 644.486L1310.7 653.712L1279.12 640.192L1259.71 626.142L1243.35 604.821L1238.33 585.261L1236.78 570.884L1249.74 582.11L1243.23 563L1247.94 564.677L1248.12 550.488L1254.26 566.928L1263.75 560.241L1263.66 594.99L1278.1 600.03L1289.78 610.26L1285.63 588.274L1295.87 580.665L1305.06 555.941L1308.86 579.227L1313.78 550.465L1327.58 582.854L1323.09 598.816L1338.37 616.013L1363.25 605.283L1372.9 590.956L1400.65 563.752L1391.52 596.196L1405.48 576.271L1403.68 611.001L1411.43 620.488L1407.09 635.921L1430.08 632.858L1458.82 609.78L1452.98 630.534L1467.77 615.55L1461.7 637.132L1474.81 645.446L1471.59 654.479L1463.47 655.994L1433.31 659.987C1433.31 659.987 1443.41 664.87 1450.4 665.569C1457.38 666.268 1483.76 653.949 1483.76 653.949L1469.91 670.286C1469.91 670.286 1455.74 678.126 1445.95 681.355C1436.17 684.585 1429.54 686.634 1418.68 686.838C1407.82 687.041 1397.3 681.287 1390.63 682.167C1383.95 683.048 1380.89 686.58 1374.21 687.411C1367.53 688.242 1354.94 680.173 1350.55 683.815C1346.15 687.457 1340.59 695.708 1340.59 695.708L1331.5 693.15L1332.22 685.682L1323.95 683.357Z" fill="#CAB8FF"/>
<path d="M184.539 375.6L173.984 381.239L166.331 379.405C166.331 379.405 157.775 389.229 150.929 393.807C144.084 398.385 136.058 401.318 128.831 403.256C121.604 405.193 117.365 406.014 109.883 406.094C102.402 406.173 82.8252 400.93 82.8252 400.93L107.376 394.923L126.355 389.037L138.787 385.224L160.074 369.566L136.736 382.435L118.878 387.607L98.0238 387.447L83.6633 381.182L74.1254 375.272L87.1772 372.7L72.377 367.567L75.6501 365.485L67.0558 358.603L80.0455 362.69L80.4818 353.693L101.702 370.327L111.675 363.897L123.506 361.633L108.073 353.682L108.305 343.782L97.5631 326.363L113.623 335.149L98.3711 318.417L124.776 325.424L132.399 335.789L150.212 334.647L155.517 314.304L151.355 301.564L147.949 271.605L163.445 292.671L157.916 274.62L178.306 292.295L187.812 292.075L195.183 302.097L204.276 286.571L203.869 257.973L213.781 271.449L211.672 255.249L221.979 269.262L233.322 265.207L237.315 271.485L234.367 277.176L222.417 297.538C222.417 297.538 230.225 293.687 233.986 289.746C237.747 285.806 242.796 263.788 242.796 263.788L246.182 280.058C246.182 280.058 244.219 292.468 241.526 299.997C238.832 307.526 236.926 312.557 231.868 319.3C226.81 326.043 218.27 329.733 215.624 334.237C212.978 338.741 213.676 342.303 210.997 346.787C208.317 351.271 197.377 355.12 197.508 359.547C197.639 363.975 200.031 371.317 200.031 371.317L194.131 375.657L189.904 371.654L184.539 375.6Z" fill="#CAB8FF"/>
<path d="M349 257C298.256 399.026 144.71 691.523 468 879.785L460.488 900C188.575 710.287 231.842 559.876 337.001 252.5L349 257Z" fill="white" fill-opacity="0.2"/>
<path d="M325.243 319.369L422.425 269.18L383.807 309.738L476.09 344.177L410.968 351.361L450.317 366.046L383.265 374.111L411.209 429.369L314.404 348.412L325.243 319.369Z" fill="white" fill-opacity="0.2"/>
<path d="M1276.58 414.753L1357.3 285.626L1348.48 360.099L1419.93 361.65L1366.9 400.123L1408.36 393.408L1340.06 425.353L1405.72 467.787L1281.53 445.354L1276.58 414.753Z" fill="white" fill-opacity="0.2"/>
<path d="M475.825 201.022L526.349 229.648L556.209 300.515L576.563 308.53L592.279 295.911L603.173 206.835L587.803 175.93L537.792 156.237L573.457 162.893L620.555 137.106L678.842 120.428L682.48 67.6262L691.382 15.4859L641.902 80.4284L623.947 55.5414L594.595 57.135L567.404 76.482L551.917 48.8095L505.412 91.767L465.101 127.614L454.611 140.948L437.899 162.578L401.321 180.416L475.825 201.022Z" fill="white" fill-opacity="0.7"/>
<path d="M356.487 260.158L475.825 201.022L401.321 180.416L393.306 200.77L359.653 223.118L356.487 260.158Z" fill="white" fill-opacity="0.7"/>
<path d="M375.682 182.411L340.578 194.374L334.97 251.685L356.487 260.158L359.653 223.118L393.306 200.77L401.321 180.416L375.682 182.411Z" fill="white" fill-opacity="0.7"/>
<path d="M272.941 112.401L257.968 137.971L275.335 212.082L295.511 208.608L340.578 194.374L375.682 182.411L401.321 180.416L380.095 172.058L358.869 163.7L347.377 141.711L325.279 133.009L284.376 102.126L272.941 112.401Z" fill="white" fill-opacity="0.7"/>
<path d="M465.101 127.614L505.412 91.767L552.75 24.4301L554.005 -18.7556L566.397 -46.9399L539.067 -38.052L548.172 -80.3643L502.471 -25.7182L460.109 -39.8589L462.268 17.1449L408.745 -14.1384L375.686 6.09835L410.813 -61.5328L345.94 -38.8689L383.071 -73.7298L320.995 -83.8331L298.518 -110.905L266.252 -119.113L235.304 -162.615L234.868 -82.6053L290.724 -31.2563L258.579 -11.4728L269.755 16.4372L219.744 -3.25563L165.296 -27.1949L186.667 17.942L151.077 46.9163L145.123 62.036L177.758 66.1544L226.479 61.83L272.941 112.401L284.376 102.126L325.279 133.009L347.377 141.711L358.869 163.7L380.095 172.058L401.321 180.416L437.899 162.578L454.611 140.948L465.101 127.614Z" fill="white" fill-opacity="0.7"/>
<path d="M466.931 189.625L501.419 230.923L504.215 302.12L519.255 315.706L536.999 309.884L575.485 236.18L572.229 204.366L535.274 170.984L564.037 188.383L613.29 181.371L669.28 185.907L689.648 141.298L714.366 98.9786L650.281 139.173L642.822 111.736L616.845 103.549L586.955 111.465L582.545 82.4163L528.208 104.513L481.56 122.462L468.116 130.607L446.57 143.919L409.031 147.466L466.931 189.625Z" fill="white" fill-opacity="0.7"/>
<path d="M344.152 202.011L466.931 189.625L409.031 147.466L395.445 162.506L358.973 170.918L344.152 202.011Z" fill="white" fill-opacity="0.7"/>
<path d="M386.144 140.839L351.799 139.771L328.253 187.649L344.152 202.011L358.973 170.918L395.445 162.506L409.031 147.466L386.144 140.839Z" fill="white" fill-opacity="0.7"/>
<path d="M319.86 46.6265L298.538 63.9227L289.441 133.861L308.072 137.424L351.799 139.771L386.144 140.839L409.031 147.466L393.346 133.298L377.662 119.13L374.863 96.3122L358.534 81.5618L333.126 41.4427L319.86 46.6265Z" fill="white" fill-opacity="0.7"/>
<path d="M481.56 122.462L528.208 104.513L591.214 61.5436L606.381 24.4981L626.316 4.09336L599.715 2.89249L621.405 -30.8368L563.956 1.65994L531.824 -24.4139L515.115 25.7295L478.892 -18.8504L443.623 -12.076L496.135 -59.2814L432.483 -60.7727L476.051 -78.9033L425.507 -107.902L414.837 -138.708L389.528 -156.345L376.868 -204.164L350.409 -134.913L382.113 -72.1698L347.785 -65.4905L348.379 -37.641L311.424 -71.0236L272.005 -109.535L275.827 -63.4215L235.514 -49.8941L225.422 -38.7216L252.383 -24.5112L296.049 -12.3792L319.86 46.6265L333.126 41.4427L358.534 81.5618L374.863 96.3122L377.662 119.13L393.346 133.298L409.031 147.466L446.57 143.919L468.116 130.607L481.56 122.462Z" fill="white" fill-opacity="0.7"/>
<path d="M1294.4 254.47L1340.48 240.919L1399.77 263.953L1416.25 256.469L1417.79 239.869L1371.13 182.139L1343.92 173.49L1303.44 191.877L1327.92 174.512L1339.69 131.687L1363.32 87.4531L1334.04 54.9079L1308.18 19.6155L1318.3 86.3879L1293.18 82.7372L1277.23 101.097L1273.09 128.387L1247.73 121.667L1246.5 174.021L1244.6 218.603L1246.49 232.509L1249.73 254.886L1239.28 286.887L1294.4 254.47Z" fill="white" fill-opacity="0.7"/>
<path d="M1260.87 359.414L1294.4 254.47L1239.28 286.887L1246.76 303.361L1240.68 336.219L1260.87 359.414Z" fill="white" fill-opacity="0.7"/>
<path d="M1225.71 303.27L1212.62 331.015L1243.45 367.325L1260.87 359.414L1240.68 336.219L1246.76 303.361L1239.28 286.887L1225.71 303.27Z" fill="white" fill-opacity="0.7"/>
<path d="M1124.99 324.038L1131.57 347.649L1185.6 379.974L1195.15 365.986L1212.62 331.015L1225.71 303.27L1239.28 286.887L1222.1 294.691L1204.92 302.495L1185.24 296.671L1167.35 304.796L1125.46 311.331L1124.99 324.038Z" fill="white" fill-opacity="0.7"/>
<path d="M1244.6 218.603L1246.5 174.021L1233.72 107.144L1208.78 81.5477L1199.16 57.9662L1188.72 79.3215L1168.81 49.5635L1174.99 108.165L1142.21 125.202L1177.33 156.72L1127.94 170.524L1120.94 201.815L1100.97 142.024L1077.1 193.616L1077.75 151.491L1036.03 182.566L1007.01 180.345L983.566 194.796L939.906 188.154L987.201 234.452L1049.86 230.808L1043.12 261.293L1066.13 270.712L1025.65 289.099L980.095 307.68L1019.21 320.953L1015.95 358.774L1021.51 371.012L1042.74 353.989L1068.2 322.548L1124.99 324.038L1125.46 311.331L1167.35 304.796L1185.24 296.671L1204.92 302.495L1222.1 294.691L1239.28 286.887L1249.73 254.886L1246.49 232.509L1244.6 218.603Z" fill="white" fill-opacity="0.7"/>
<path d="M1290.75 253.965L1335.87 259.999L1378.33 302.802L1395.48 302.675L1403.21 288.898L1385.07 220.924L1364.84 202.945L1322.71 203.258L1350.6 197.661L1377.3 165.123L1414.82 135.934L1402.01 96.4662L1393.22 55.939L1376.24 117.653L1355.9 104.807L1335.02 114.556L1320.9 136.585L1301.54 120.991L1280.29 165.844L1261.46 203.713L1257.74 216.481L1251.91 237.104L1230.53 260.782L1290.75 253.965Z" fill="white" fill-opacity="0.7"/>
<path d="M1221.26 331.9L1290.75 253.965L1230.53 260.782L1230.65 277.931L1212.72 304.034L1221.26 331.9Z" fill="white" fill-opacity="0.7"/>
<path d="M1212.46 269.736L1190.43 288.711L1203.13 332.035L1221.26 331.9L1212.72 304.034L1230.65 277.931L1230.53 260.782L1212.46 269.736Z" fill="white" fill-opacity="0.7"/>
<path d="M1117.25 248.885L1113.84 271.864L1148.16 320.683L1161.82 312.252L1190.43 288.711L1212.46 269.736L1230.53 260.782L1212.64 260.915L1194.76 261.048L1179.97 248.418L1161.35 248.557L1122.56 238.065L1117.25 248.885Z" fill="white" fill-opacity="0.7"/>
<path d="M1261.46 203.713L1280.29 165.844L1295.01 103.016L1283.29 71.2389L1284.05 47.1137L1266.78 61.5764L1261.01 28.1377L1243.77 81.2566L1208.82 83.3696L1227.07 124.197L1178.99 117.108L1160.87 141.502L1166.62 82.0328L1126.07 117.502L1142.88 81.2805L1094.77 92.099L1070.5 78.9875L1044.63 82.4607L1009.39 59.8781L1032.49 118.197L1088.14 139.198L1070.55 162.994L1086.85 180.022L1044.71 180.335L998.106 178.859L1026.86 205.433L1009.45 236.922L1009.55 249.661L1034.49 243.105L1068.66 225.702L1117.25 248.885L1122.56 238.065L1161.35 248.557L1179.97 248.418L1194.76 261.048L1212.64 260.915L1230.53 260.782L1251.91 237.104L1257.74 216.481L1261.46 203.713Z" fill="white" fill-opacity="0.7"/>
<path d="M183.904 671.909L132.157 672.548L108.88 695.914L88.3876 711.492L70.683 738.262C70.683 738.262 65.0367 756.33 69.8748 765.991C73.7657 773.761 78.8466 776.792 86.6822 780.574C93.6518 783.938 98.3269 784.34 106.072 784.814C122.571 785.823 132.106 780.861 146.941 773.464C161.47 766.22 168.938 760.141 180.044 748.299C190.311 737.351 197.111 730.824 201.685 716.564C205.335 705.183 204.152 686.11 204.152 686.11L183.904 671.909Z" fill="white" fill-opacity="0.7"/>
<path d="M132.157 672.548L183.904 671.909L210.438 639.412L210.183 626.316L209.461 589.377L182.147 589.437L168.275 599.982L154.404 610.528L123.919 623.104L99.1706 641.918L125.725 666.575L132.157 672.548Z" fill="white" fill-opacity="0.7"/>
<path d="M210.438 639.412L183.904 671.909L204.152 686.11L220.67 697.695C220.67 697.695 243.651 703.945 258.535 702.679C272.453 701.495 281.062 700.061 292.893 692.581C304.046 685.53 312.433 680.48 315.813 667.762C316.778 664.129 317.46 661.944 317.016 658.221C315.732 647.458 295.386 640.894 295.386 640.894L277.73 635.336L233.18 641.843L210.438 639.412Z" fill="white" fill-opacity="0.7"/>
<path d="M233.18 641.843L277.73 635.336L307.903 605.99L334.745 570.301L338.968 550.662L346.631 535.876L330.927 534.523L308.071 551.899L279.995 569.28L258.944 581.832L210.183 626.316L210.438 639.412L233.18 641.843Z" fill="white" fill-opacity="0.7"/>
<path d="M277.73 635.336L295.386 640.894C295.386 640.894 311.556 638.812 320.911 634.553C332.238 629.397 337.569 624.143 346.29 615.26C355.83 605.542 363.247 600.039 366.478 586.849C367.958 580.803 369.078 576.991 367.588 570.969C365.672 563.223 355.237 554.722 355.237 554.722L338.968 550.662L334.745 570.301L307.903 605.99L277.73 635.336Z" fill="white" fill-opacity="0.7"/>
<path d="M210.183 626.316L258.944 581.832L279.995 569.28L297.203 532.041L307.085 483.857L303.339 429.272L291.652 482.86L272.987 473.175L252.036 508.945L254.105 534.733L251.488 565.809L242.341 588.785L210.183 626.316Z" fill="white" fill-opacity="0.7"/>
<path d="M182.147 589.437L209.461 589.377L210.183 626.316L242.341 588.785L251.488 565.809L254.105 534.733L252.036 508.945L243.367 497.541L223.348 494.766L193.294 524.268L183.759 541.008L174.223 557.747L170.18 586.456L168.275 599.982L182.147 589.437Z" fill="white" fill-opacity="0.7"/>
<path d="M193.294 524.268L223.348 494.766L243.367 497.541L252.036 508.945L252.505 458.946L233.979 434.577L235 389.036L210.231 428.063L183.593 382.597L213.144 457.786L178.404 447.097L188.624 500.458L183.759 541.008L193.294 524.268Z" fill="white" fill-opacity="0.7"/>
<path d="M174.223 557.747L183.759 541.008L188.624 500.458L168.673 474.214L147.951 479.615L147.412 507.757L118.968 506.331L136.188 528.982L125.048 543.121L118.997 574.096L128.612 566.786L154.833 553.508L167.445 562.9L170.18 586.456L174.223 557.747Z" fill="white" fill-opacity="0.7"/>
<path d="M123.919 623.104L154.404 610.528L168.275 599.982L170.18 586.456L167.445 562.9L131.347 590.342L93.8296 599.883L123.919 623.104Z" fill="white" fill-opacity="0.7"/>
<path d="M99.1706 641.918L123.919 623.104L93.8296 599.883L131.347 590.342L167.445 562.9L154.833 553.508L128.612 566.786L118.997 574.096L85.7978 572.959L70.7375 553.149L53.6014 571.703L44.2342 549.095L26.4655 556.096L22.5026 589.818L39.6253 595.982L66.7715 609.115L91.0952 631.295L99.1706 641.918Z" fill="white" fill-opacity="0.7"/>
<path d="M39.6253 595.982L22.5026 589.818L-7.964 532.521L-16.9989 557.815L-50.6239 564.952L-44.1359 593.186L-50.2625 614.426L-2.61959 628.097L20.6964 622.45L53.8953 623.587L91.0952 631.295L66.7715 609.115L39.6253 595.982Z" fill="white" fill-opacity="0.7"/>
<path d="M99.1706 641.918L91.0952 631.295L53.8953 623.587L20.6964 622.45L-2.61959 628.097L-19.486 640.92L3.29599 662.053L27.7193 675.531L68.9116 685.873L95.2785 685.548L125.725 666.575L99.1706 641.918Z" fill="white" fill-opacity="0.7"/>
<path d="M108.88 695.914L132.157 672.548L125.725 666.575L95.2785 685.548L68.9116 685.873L27.7193 675.531L3.29599 662.053L-24.9531 683.529L-100.166 683.072L-13.1221 714.555L17.6131 724.871L56.3051 719.349L88.3876 711.492L108.88 695.914Z" fill="white" fill-opacity="0.7"/>
<path d="M166.053 644.745L123.687 634.02L99.613 648.028L79.505 656.287L59.2393 674.285C59.2393 674.285 50.7049 687.802 52.5533 696.737C54.0398 703.923 57.5271 707.501 63.0993 712.29C68.0557 716.55 71.7835 717.894 78.0012 719.964C91.2449 724.373 100.105 722.397 113.819 719.584C127.249 716.83 134.664 713.493 146.301 706.243C157.058 699.541 164.026 695.692 170.858 685.05C176.31 676.556 179.49 660.734 179.49 660.734L166.053 644.745Z" fill="white" fill-opacity="0.7"/>
<path d="M123.687 634.02L166.053 644.745L194.769 623.993L197.407 613.25L204.846 582.95L182.543 577.062L168.932 582.653L155.32 588.244L127.71 591.881L103.425 601.855L119.736 627.748L123.687 634.02Z" fill="white" fill-opacity="0.7"/>
<path d="M194.769 623.993L166.053 644.745L179.49 660.734L190.451 673.777C190.451 673.777 207.846 683.872 220.267 686.074C231.883 688.133 239.219 688.834 250.5 685.301C261.134 681.971 269.075 679.673 274.597 670.029C276.175 667.274 277.206 665.639 277.653 662.504C278.944 653.443 263.768 643.664 263.768 643.664L250.568 635.292L212.798 630.919L194.769 623.993Z" fill="white" fill-opacity="0.7"/>
<path d="M212.798 630.919L250.568 635.292L281.568 617.901L311.229 594.611L318.943 579.504L328.41 569.103L315.889 564.586L293.461 573.798L266.772 581.879L246.865 587.547L197.407 613.25L194.769 623.993L212.798 630.919Z" fill="white" fill-opacity="0.7"/>
<path d="M250.568 635.292L263.768 643.664C263.768 643.664 277.415 645.48 285.976 644.038C296.339 642.291 301.832 639.163 310.878 633.809C320.776 627.953 328.024 625.074 333.527 615.012C336.05 610.4 337.791 607.533 337.885 602.294C338.005 595.557 331.337 586.353 331.337 586.353L318.943 579.504L311.229 594.611L281.568 617.901L250.568 635.292Z" fill="white" fill-opacity="0.7"/>
<path d="M197.407 613.25L246.865 587.547L266.772 581.879L288.908 555.231L307.444 518.058L316.251 472.7L295.067 513.891L281.94 501.93L257.069 526.567L253.153 548.061L244.264 572.851L231.806 589.612L197.407 613.25Z" fill="white" fill-opacity="0.7"/>
<path d="M182.543 577.062L204.846 582.95L197.407 613.25L231.806 589.612L244.264 572.851L253.153 548.061L257.069 526.567L252.473 515.377L236.741 508.761L205.804 526.305L194.384 537.892L182.964 549.48L173.426 572.029L168.932 582.653L182.543 577.062Z" fill="white" fill-opacity="0.7"/>
<path d="M205.804 526.305L236.741 508.761L252.473 515.377L257.069 526.567L268.319 485.868L258.498 461.955L269.228 425.013L240.533 451.479L228.677 408.587L236.451 476.367L210.424 460.094L207.168 505.859L194.384 537.892L205.804 526.305Z" fill="white" fill-opacity="0.7"/>
<path d="M182.964 549.48L194.384 537.892L207.168 505.859L196.591 480.107L178.506 480.011L171.95 502.859L149.049 495.514L158.178 517.74L146.014 526.857L134.344 550.818L143.78 546.943L168.062 541.806L176.313 552.212L173.426 572.029L182.964 549.48Z" fill="white" fill-opacity="0.7"/>
<path d="M127.71 591.881L155.32 588.244L168.932 582.653L173.426 572.029L176.313 552.212L140.892 566.76L108.202 566.393L127.71 591.881Z" fill="white" fill-opacity="0.7"/>
<path d="M103.425 601.855L127.71 591.881L108.202 566.393L140.892 566.76L176.313 552.212L168.062 541.806L143.78 546.943L134.344 550.818L107.5 542.676L99.5155 523.236L81.4992 534.654L78.7687 514.169L62.7473 516.02L52.1844 542.677L64.8175 551.428L84.1156 568.045L99.1442 591.431L103.425 601.855Z" fill="white" fill-opacity="0.7"/>
<path d="M64.8175 551.428L52.1844 542.677L39.775 489.299L26.9049 507.976L-2.0856 506.492L-2.92731 530.942L-12.5432 546.944L23.3641 568.454L43.6182 568.914L70.4629 577.056L99.1442 591.431L84.1156 568.045L64.8175 551.428Z" fill="white" fill-opacity="0.7"/>
<path d="M103.425 601.855L99.1442 591.431L70.4629 577.056L43.6182 568.914L23.3641 568.454L6.81369 575.252L20.8116 597.45L37.8129 613.756L69.1797 631.148L90.7669 636.613L119.736 627.748L103.425 601.855Z" fill="white" fill-opacity="0.7"/>
<path d="M99.613 648.028L123.687 634.02L119.736 627.748L90.7669 636.613L69.1797 631.148L37.8129 613.756L20.8116 597.45L-6.90816 608.835L-68.1854 592.116L-3.9967 636.725L18.8424 651.823L51.6168 655.726L79.505 656.287L99.613 648.028Z" fill="white" fill-opacity="0.7"/>
<path d="M1040 976C1092.5 624 1326 764 1338.5 679" stroke="#CAB8FF" stroke-width="4"/>
<path d="M188 367C222.288 422.987 524.762 439.368 454 749C446.333 790.167 430.4 871 392 933" stroke="#CAB8FF" stroke-width="4"/>
<path d="M184.539 375.6L173.984 381.239L166.331 379.405C166.331 379.405 157.775 389.229 150.929 393.807C144.084 398.385 136.058 401.318 128.831 403.256C121.604 405.193 117.365 406.014 109.883 406.094C102.402 406.173 82.8252 400.93 82.8252 400.93L107.376 394.923L126.355 389.037L138.787 385.224L160.074 369.566L136.736 382.435L118.878 387.607L98.0238 387.447L83.6633 381.182L74.1254 375.272L87.1772 372.7L72.377 367.567L75.6501 365.485L67.0558 358.603L80.0455 362.69L80.4818 353.693L101.702 370.327L111.675 363.897L123.506 361.633L108.073 353.682L108.305 343.782L97.5631 326.363L113.623 335.149L98.3711 318.417L124.776 325.424L132.399 335.789L150.212 334.647L155.517 314.304L151.355 301.564L147.949 271.605L163.445 292.671L157.916 274.62L178.306 292.295L187.812 292.075L195.183 302.097L204.276 286.571L203.869 257.973L213.781 271.449L211.672 255.249L221.979 269.262L233.322 265.207L237.315 271.485L234.367 277.176L222.417 297.538C222.417 297.538 230.225 293.687 233.986 289.746C237.747 285.806 242.796 263.788 242.796 263.788L246.182 280.058C246.182 280.058 244.219 292.468 241.526 299.997C238.832 307.526 236.926 312.557 231.868 319.3C226.81 326.043 218.27 329.733 215.624 334.237C212.978 338.741 213.676 342.303 210.997 346.787C208.317 351.271 197.377 355.12 197.508 359.547C197.639 363.975 200.031 371.317 200.031 371.317L194.131 375.657L189.904 371.654L184.539 375.6Z" fill="#CAB8FF"/>
<path d="M188 367C222.288 422.987 524.762 439.368 454 749C446.333 790.167 430.4 871 392 933" stroke="#CAB8FF" stroke-width="4"/>
<path d="M-86.84 811.41L-0.468083 786.486L40.5868 817.598L-45.9933 832.367L-86.7469 862.891L-86.84 811.41Z" fill="white" fill-opacity="0.7"/>
<path d="M127.967 696.774L151.058 811.132L44.9529 879.091L56.1219 812.654L11.7532 781.857L103.563 794.652L127.967 696.774Z" fill="white" fill-opacity="0.7"/>
<path d="M47.7152 884.884L132.261 909.122L120.83 836L47.7152 884.884Z" fill="white" fill-opacity="0.7"/>
<path d="M-39.5578 852.211L31.9669 903.394L45.7154 830.671L-39.5578 852.211Z" fill="white" fill-opacity="0.7"/>
<path d="M433.16 811.41L519.532 786.486L560.587 817.598L474.007 832.367L433.253 862.891L433.16 811.41Z" fill="white" fill-opacity="0.7"/>
<path d="M205.743 818.819L243.908 737.427L219.622 692L191.453 775.191L154.914 810.651L205.743 818.819Z" fill="white" fill-opacity="0.7"/>
<path d="M357.347 886.671L206.24 891.512L152 823.569L299.29 835.419L378.269 802.453L357.347 886.671Z" fill="white" fill-opacity="0.7"/>
<path d="M321.892 809.212L376.572 751.143L456.414 783.489L414.934 803.509L415.283 840.433L386.144 784.153L321.892 809.212Z" fill="white" fill-opacity="0.7"/>
<path d="M385.991 807.2L373.331 884.453L446.158 927.404L437.028 883.13L466.02 861.383L404.772 872.23L385.991 807.2Z" fill="white" fill-opacity="0.7"/>
<path d="M647.967 696.774L671.058 811.132L564.953 879.091L576.122 812.654L531.753 781.857L623.563 794.652L647.967 696.774Z" fill="white" fill-opacity="0.7"/>
<path d="M267.065 712.997L215.172 815.408L300.971 822.685L267.065 712.997Z" fill="white" fill-opacity="0.7"/>
<path d="M311.486 809.694L355.102 733.318L281.356 727.064L311.486 809.694Z" fill="white" fill-opacity="0.7"/>
<path d="M596.082 872.534L680.628 896.773L669.198 823.65L596.082 872.534Z" fill="white" fill-opacity="0.7"/>
<path d="M480.442 852.211L551.967 903.394L565.715 830.671L480.442 852.211Z" fill="white" fill-opacity="0.7"/>
<path d="M950.16 823.41L1036.53 798.486L1077.59 829.598L991.007 844.367L950.253 874.891L950.16 823.41Z" fill="white" fill-opacity="0.7"/>
<path d="M874.347 898.671L723.24 903.512L669 835.569L816.29 847.419L895.269 814.453L874.347 898.671Z" fill="white" fill-opacity="0.7"/>
<path d="M838.892 821.212L893.572 763.143L973.414 795.489L931.934 815.509L932.283 852.433L903.144 796.153L838.892 821.212Z" fill="white" fill-opacity="0.7"/>
<path d="M902.991 819.2L890.331 896.453L963.158 939.404L954.028 895.13L983.02 873.383L921.772 884.23L902.991 819.2Z" fill="white" fill-opacity="0.7"/>
<path d="M1164.97 708.774L1188.06 823.132L1081.95 891.091L1093.12 824.654L1048.75 793.857L1140.56 806.652L1164.97 708.774Z" fill="white" fill-opacity="0.7"/>
<path d="M784.061 724.997L732.168 827.408L817.967 834.685L784.061 724.997Z" fill="white" fill-opacity="0.7"/>
<path d="M828.486 821.694L872.102 745.318L798.356 739.064L828.486 821.694Z" fill="white" fill-opacity="0.7"/>
<path d="M1084.72 896.884L1169.26 921.122L1157.83 848L1084.72 896.884Z" fill="white" fill-opacity="0.7"/>
<path d="M1171.44 891.339L1164.45 846.041L1201.51 856.743L1171.44 891.339Z" fill="white" fill-opacity="0.7"/>
<path d="M997.442 864.211L1068.97 915.394L1082.72 842.671L997.442 864.211Z" fill="white" fill-opacity="0.7"/>
<path d="M1242.74 830.819L1280.91 749.427L1256.62 704L1228.45 787.191L1191.91 822.651L1242.74 830.819Z" fill="white" fill-opacity="0.7"/>
<path d="M721.743 820.819L759.908 739.427L735.622 694L707.453 777.191L670.914 812.651L721.743 820.819Z" fill="white" fill-opacity="0.7"/>
<path d="M1394.35 898.671L1243.24 903.512L1189 835.569L1336.29 847.419L1415.27 814.453L1394.35 898.671Z" fill="white" fill-opacity="0.7"/>
<path d="M1358.89 821.212L1413.57 763.143L1493.41 795.489L1451.93 815.509L1452.28 852.433L1423.14 796.153L1358.89 821.212Z" fill="white" fill-opacity="0.7"/>
<path d="M1422.99 819.2L1410.33 896.453L1483.16 939.404L1474.03 895.13L1503.02 873.383L1441.77 884.23L1422.99 819.2Z" fill="white" fill-opacity="0.7"/>
<path d="M1304.07 724.997L1252.17 827.408L1337.97 834.685L1304.07 724.997Z" fill="white" fill-opacity="0.7"/>
<path d="M1348.49 821.694L1392.1 745.318L1318.36 739.064L1348.49 821.694Z" fill="white" fill-opacity="0.7"/>
<path d="M1006.8 920.334L966.36 901.861L994.779 877.532L1006.8 920.334Z" fill="white" fill-opacity="0.7"/>
<defs>
<linearGradient id="paint0_linear_570_56" x1="1150.6" y1="605.878" x2="1092.2" y2="958.825" gradientUnits="userSpaceOnUse">
<stop stop-color="white"/>
<stop offset="1" stop-color="white" stop-opacity="0"/>
</linearGradient>
<linearGradient id="paint1_linear_570_56" x1="1150.6" y1="605.878" x2="1092.2" y2="958.825" gradientUnits="userSpaceOnUse">
<stop stop-color="white"/>
<stop offset="1" stop-color="white" stop-opacity="0"/>
</linearGradient>
<linearGradient id="paint2_linear_570_56" x1="1150.6" y1="605.878" x2="1092.2" y2="958.825" gradientUnits="userSpaceOnUse">
<stop stop-color="white"/>
<stop offset="1" stop-color="white" stop-opacity="0"/>
</linearGradient>
<linearGradient id="paint3_linear_570_56" x1="1150.6" y1="605.878" x2="1092.2" y2="958.825" gradientUnits="userSpaceOnUse">
<stop stop-color="white"/>
<stop offset="1" stop-color="white" stop-opacity="0"/>
</linearGradient>
<linearGradient id="paint4_linear_570_56" x1="1150.6" y1="605.878" x2="1092.2" y2="958.825" gradientUnits="userSpaceOnUse">
<stop stop-color="white"/>
<stop offset="1" stop-color="white" stop-opacity="0"/>
</linearGradient>
<linearGradient id="paint5_linear_570_56" x1="1150.6" y1="605.878" x2="1092.2" y2="958.825" gradientUnits="userSpaceOnUse">
<stop stop-color="white"/>
<stop offset="1" stop-color="white" stop-opacity="0"/>
</linearGradient>
<linearGradient id="paint6_linear_570_56" x1="1150.6" y1="605.878" x2="1092.2" y2="958.825" gradientUnits="userSpaceOnUse">
<stop stop-color="white"/>
<stop offset="1" stop-color="white" stop-opacity="0"/>
</linearGradient>
<linearGradient id="paint7_linear_570_56" x1="1150.6" y1="605.878" x2="1092.2" y2="958.825" gradientUnits="userSpaceOnUse">
<stop stop-color="white"/>
<stop offset="1" stop-color="white" stop-opacity="0"/>
</linearGradient>
<linearGradient id="paint8_linear_570_56" x1="1150.6" y1="605.878" x2="1092.2" y2="958.825" gradientUnits="userSpaceOnUse">
<stop stop-color="white"/>
<stop offset="1" stop-color="white" stop-opacity="0"/>
</linearGradient>
<linearGradient id="paint9_linear_570_56" x1="1150.6" y1="605.878" x2="1092.2" y2="958.825" gradientUnits="userSpaceOnUse">
<stop stop-color="white"/>
<stop offset="1" stop-color="white" stop-opacity="0"/>
</linearGradient>
<linearGradient id="paint10_linear_570_56" x1="1150.6" y1="605.878" x2="1092.2" y2="958.825" gradientUnits="userSpaceOnUse">
<stop stop-color="white"/>
<stop offset="1" stop-color="white" stop-opacity="0"/>
</linearGradient>
<linearGradient id="paint11_linear_570_56" x1="1150.6" y1="605.878" x2="1092.2" y2="958.825" gradientUnits="userSpaceOnUse">
<stop stop-color="white"/>
<stop offset="1" stop-color="white" stop-opacity="0"/>
</linearGradient>
<linearGradient id="paint12_linear_570_56" x1="1150.6" y1="605.878" x2="1092.2" y2="958.825" gradientUnits="userSpaceOnUse">
<stop stop-color="white"/>
<stop offset="1" stop-color="white" stop-opacity="0"/>
</linearGradient>
<linearGradient id="paint13_linear_570_56" x1="1150.6" y1="605.878" x2="1092.2" y2="958.825" gradientUnits="userSpaceOnUse">
<stop stop-color="white"/>
<stop offset="1" stop-color="white" stop-opacity="0"/>
</linearGradient>
<linearGradient id="paint14_linear_570_56" x1="1297.75" y1="641.903" x2="1187.16" y2="965.087" gradientUnits="userSpaceOnUse">
<stop offset="0.456731" stop-color="white"/>
<stop offset="1" stop-color="white" stop-opacity="0"/>
</linearGradient>
<linearGradient id="paint15_linear_570_56" x1="1297.75" y1="641.903" x2="1187.16" y2="965.087" gradientUnits="userSpaceOnUse">
<stop offset="0.456731" stop-color="white"/>
<stop offset="1" stop-color="white" stop-opacity="0"/>
</linearGradient>
<linearGradient id="paint16_linear_570_56" x1="1297.75" y1="641.903" x2="1187.16" y2="965.087" gradientUnits="userSpaceOnUse">
<stop offset="0.456731" stop-color="white"/>
<stop offset="1" stop-color="white" stop-opacity="0"/>
</linearGradient>
<linearGradient id="paint17_linear_570_56" x1="1297.75" y1="641.903" x2="1187.16" y2="965.087" gradientUnits="userSpaceOnUse">
<stop offset="0.456731" stop-color="white"/>
<stop offset="1" stop-color="white" stop-opacity="0"/>
</linearGradient>
<linearGradient id="paint18_linear_570_56" x1="1297.75" y1="641.903" x2="1187.16" y2="965.087" gradientUnits="userSpaceOnUse">
<stop offset="0.456731" stop-color="white"/>
<stop offset="1" stop-color="white" stop-opacity="0"/>
</linearGradient>
<linearGradient id="paint19_linear_570_56" x1="1297.75" y1="641.903" x2="1187.16" y2="965.087" gradientUnits="userSpaceOnUse">
<stop offset="0.456731" stop-color="white"/>
<stop offset="1" stop-color="white" stop-opacity="0"/>
</linearGradient>
<linearGradient id="paint20_linear_570_56" x1="1297.75" y1="641.903" x2="1187.16" y2="965.087" gradientUnits="userSpaceOnUse">
<stop offset="0.456731" stop-color="white"/>
<stop offset="1" stop-color="white" stop-opacity="0"/>
</linearGradient>
<linearGradient id="paint21_linear_570_56" x1="1297.75" y1="641.903" x2="1187.16" y2="965.087" gradientUnits="userSpaceOnUse">
<stop offset="0.456731" stop-color="white"/>
<stop offset="1" stop-color="white" stop-opacity="0"/>
</linearGradient>
<linearGradient id="paint22_linear_570_56" x1="1297.75" y1="641.903" x2="1187.16" y2="965.087" gradientUnits="userSpaceOnUse">
<stop offset="0.456731" stop-color="white"/>
<stop offset="1" stop-color="white" stop-opacity="0"/>
</linearGradient>
<linearGradient id="paint23_linear_570_56" x1="1297.75" y1="641.903" x2="1187.16" y2="965.087" gradientUnits="userSpaceOnUse">
<stop offset="0.456731" stop-color="white"/>
<stop offset="1" stop-color="white" stop-opacity="0"/>
</linearGradient>
<linearGradient id="paint24_linear_570_56" x1="1297.75" y1="641.903" x2="1187.16" y2="965.087" gradientUnits="userSpaceOnUse">
<stop offset="0.456731" stop-color="white"/>
<stop offset="1" stop-color="white" stop-opacity="0"/>
</linearGradient>
<linearGradient id="paint25_linear_570_56" x1="1297.75" y1="641.903" x2="1187.16" y2="965.087" gradientUnits="userSpaceOnUse">
<stop offset="0.456731" stop-color="white"/>
<stop offset="1" stop-color="white" stop-opacity="0"/>
</linearGradient>
<linearGradient id="paint26_linear_570_56" x1="1297.75" y1="641.903" x2="1187.16" y2="965.087" gradientUnits="userSpaceOnUse">
<stop offset="0.456731" stop-color="white"/>
<stop offset="1" stop-color="white" stop-opacity="0"/>
</linearGradient>
<linearGradient id="paint27_linear_570_56" x1="1297.75" y1="641.903" x2="1187.16" y2="965.087" gradientUnits="userSpaceOnUse">
<stop offset="0.456731" stop-color="white"/>
<stop offset="1" stop-color="white" stop-opacity="0"/>
</linearGradient>
</defs>
</svg>
