<svg width="1309" height="483" viewBox="0 0 1309 483" fill="none" xmlns="http://www.w3.org/2000/svg">
<path d="M693.244 156.851L676.785 132.986L694.512 51.0698L595.35 46.8071L518.712 31.1459L471.401 48.3951L401.869 47.5324L416.152 97.614L399.272 157.712L460.409 142.984L514.441 159.141L584.046 149.209L693.244 156.851Z" fill="white" stroke="#142F57"/>
<path d="M967.293 311.055L983.903 334.076L967.293 426.195L1042.6 418.077L1142.51 432.956L1189.63 416.745L1288.6 426.195L1254.6 368.695L1283.1 311.055L1199.92 326.05L1145.85 310.153L1076.4 319.18L967.293 311.055Z" fill="white" stroke="#142F57"/>
<path d="M208.288 43.5911L286.269 40.3923L310.602 95.5161L304.924 162.07L233.691 140.987L164.102 162.07H36.2895V122.695L0.601562 95.5161L16.4788 54.4677H96.8852L144.896 34.1953L208.288 43.5911Z" fill="white" stroke="#142F57"/>
<path d="M771.288 308.591L849.269 305.392L873.602 360.516L867.924 427.07L796.691 405.987L727.102 427.07H599.289V387.695L563.602 360.516L579.479 319.468H659.885L707.896 299.195L771.288 308.591Z" fill="white" stroke="#142F57"/>
</svg>
