<svg width="1440" height="1128" viewBox="0 0 1440 1128" fill="none" xmlns="http://www.w3.org/2000/svg">
<ellipse cx="715" cy="514.5" rx="856" ry="514.5" fill="url(#paint0_linear_494_2)" fill-opacity="0.2"/>
<path d="M549.635 614.194L564.175 623.918L541.806 648.229L573.794 650.376L600.879 661.018L637.994 682.301L652.038 699.86L726.771 631.211L740.815 638.67L757.868 609.937L805.516 623.918L761.379 659.169L774.921 679.109L799.999 696.851L832.601 704.144H860.688L878.745 687.622L866.206 671.932L844.137 650.376H866.206L890.782 623.918L902.82 661.018L933.917 679.109L963.509 671.932L995.609 687.622L1022.69 704.144L1084.89 679.109H1130.53L1149.09 699.86L1169.15 704.144L1183.69 699.86L1175.17 687.622L1180.69 674.852L1152.6 656.761L1158.62 650.376L1189.71 656.761L1175.17 638.67V605.148L1205.26 583.865L1217.3 558.325L1263.44 583.865L1286.52 558.325L1336.67 583.865L1372.28 593.442L1424.95 623.918L1442 593.442C1283.91 421.471 1013 360.032 897.303 350.81L905.328 378.478L880.249 362.516L845.14 344.957V357.727L880.249 383.267L824.074 357.727L814.545 383.267L798.495 378.478L774.921 383.267L749.341 400.294L709.216 395.505H692.665L649.029 389.12L622.948 435.412L596.611 424.238L605.393 405.083L584.867 424.238L564.175 441.265L578.81 466.273L599.374 470.53L611.412 498.73H623.951L649.029 534.913L623.951 546.618L569.782 534.913L549.635 554.6L562.258 566.838L532.165 600.36L549.635 614.194Z" fill="url(#paint1_linear_494_2)"/>
<path d="M728.777 972.822L711.223 953.135L685.141 929.191H637.994L629.969 898.33L573.794 865.872H528.152L532.165 898.33L500.566 936.108L475.817 917.485L466.961 936.108L485.519 953.135L500.566 999.959H515.613L509.093 1012.73L528.152 1046.25H706.207L717.743 1023.37L737.304 1039.33L753.354 993.042L728.777 972.822Z" fill="url(#paint2_linear_494_2)"/>
<path d="M327.06 883.436L308.606 877.966L301.336 862.772L285.118 854.871L292.947 845.754L272.815 837.853L251.004 845.754L230.872 891.945L190.607 862.772L183.896 837.853L155.375 819.012L116.229 845.754V877.966L96.0966 891.945L59.1872 964.841L68.1349 1016.45L108.845 1046.25L145.868 1027.63L237.747 1117.02H263.327L271.101 1081.63L278.875 1046.25L301.336 947.814V912.164L327.06 883.436Z" fill="url(#paint3_linear_494_2)"/>
<path d="M145.868 752.158H116.229H102.248H87.7081L59.1872 770.999H36.8178L22.837 781.331H4.38226L-2 760.519V1125L12.5453 1117.02L4.38226 1070.19L68.1349 1016.45L59.1872 964.841L96.0966 891.945L108.845 842.992L102.248 809.471L128.406 800.779L145.868 752.158Z" fill="url(#paint4_linear_494_2)"/>
<path d="M458.48 877.966L404.235 868.849L379.069 891.945L334.33 877.966L327.06 883.436L301.336 912.164V947.814L278.875 1046.25L271.101 1081.63L352.785 1075.52V1125L383.543 1059.02L410.945 1070.19L432.354 1081.63L458.48 1046.25L466.961 1023.37L458.48 972.822L432.354 936.108L442.385 917.485L458.48 877.966Z" fill="url(#paint5_linear_494_2)"/>
<path d="M22.837 744.864L4.38226 752.158L-2 760.519L4.38226 781.331H22.837L36.8178 770.999H59.1872L87.7081 752.158H102.248H116.229H145.868L164.323 744.864L178.304 752.158L171.593 770.999V781.331H164.323L159.849 800.779H145.868L155.375 819.012L183.896 837.853L190.607 862.772L230.872 891.945L251.004 845.754L272.815 837.853L292.947 845.754L285.118 854.871L301.336 862.772L308.606 877.966L327.06 883.436L334.33 877.966L379.069 891.945L404.235 868.849L458.48 877.966L475.817 831.776L467.428 800.779L446.177 792.27L428.841 770.999L404.235 781.331L383.543 770.999L392.491 744.864V718.123L366.207 712.653L352.785 729.67L349.43 718.123H341.041V740.002L358.937 744.864L349.43 760.666H327.06L313.639 781.331L301.336 770.999L308.606 752.158L301.336 740.002L308.606 726.024L301.336 712.653L313.639 687.734L285.118 648.229H272.815L261.63 655.522L292.947 712.653H268.341V733.317H251.004L257.156 712.653L216.891 655.522L201.233 664.031H183.896L171.593 648.229L155.375 655.522V678.618L135.802 687.734L116.229 702.321L96.0966 687.734L83.7935 702.321L68.1349 733.317L36.8178 752.158L22.837 744.864Z" fill="url(#paint6_linear_494_2)"/>
<path d="M4.38226 752.158L22.837 744.864L36.8178 752.158L68.1349 733.317L83.7935 702.321L96.0966 687.734L116.229 702.321L135.802 687.734L155.375 678.618V655.522L171.593 648.229L183.896 664.031H201.233L227.716 600.36L278.875 578.544L263.327 532.252L261.63 512.565L278.875 483.832L288.907 480.639L292.947 466.273H278.875L237.747 505.648L207.152 493.942L194.613 512.565L178.304 505.648L155.375 519.482L190.607 534.913L207.152 542.362L221.697 534.913L227.716 542.362L213.672 558.325L201.233 554.6L178.304 572.159L159.849 566.838L151.98 578.544L155.375 592.378L135.802 630.689L102.248 655.522L50.1626 643.991L36.8178 664.031L56.1813 684.43L47.1532 704.144L22.837 698.264L-2 726.024V760.519L4.38226 752.158Z" fill="url(#paint7_linear_494_2)"/>
<path d="M201.233 664.031L216.891 655.522L257.156 712.653L251.004 733.317H268.341V712.653H292.947L261.63 655.522L272.815 648.229H285.118V630.689H308.606V614.194L341.041 600.36L334.33 534.913L313.639 532.252L341.041 505.648L323.013 501.391L308.606 516.289H288.907L263.327 532.252L278.875 578.544L227.716 600.36L201.233 664.031Z" fill="url(#paint8_linear_494_2)"/>
<path d="M441.144 671.932L452.888 637.289L475.817 623.918L490.357 637.289L510.489 631.211L516.081 637.289L549.635 614.194L532.165 600.36L562.258 566.838L549.635 554.6L569.782 534.913L557.465 525.867L578.81 512.565L541.806 470.53L528.152 501.391L475.817 519.482L458.48 558.325L416.538 578.544L452.888 592.378L446.177 600.36L428.841 592.378L383.543 623.918L364.249 651.31L379.069 671.932H441.144Z" fill="url(#paint9_linear_494_2)"/>
<path d="M285.118 648.229L313.639 687.734L334.33 671.932L366.207 696.851L379.069 671.932L364.249 651.31L349.43 630.689L327.06 623.918L341.041 600.36L308.606 614.194V630.689H285.118V648.229Z" fill="url(#paint10_linear_494_2)"/>
<path d="M313.639 687.734L301.336 712.653L308.606 726.024L301.336 740.002L308.606 752.158L323.013 742.96L313.639 726.024L323.013 704.144L366.207 696.851L334.33 671.932L313.639 687.734Z" fill="url(#paint11_linear_494_2)"/>
<path d="M416.538 687.734L441.144 671.932H379.069L366.207 696.851L410.945 704.144L416.538 687.734Z" fill="url(#paint12_linear_494_2)"/>
<path d="M308.606 752.158L301.336 770.999L313.639 781.331L327.06 760.666H349.43L358.937 744.864L341.041 740.002V718.123H349.43L352.785 729.67L366.207 712.653L392.491 718.123V744.864L383.543 770.999L404.235 781.331L428.841 770.999L446.177 792.27L467.428 800.779L475.817 770.999L541.806 780.206L609.405 770.999L649.029 759.454L637.994 718.123L617.862 712.653V726.024L596.611 712.653L557.465 718.123L541.806 726.024V704.144L510.489 687.734L475.817 696.851L458.48 704.144H428.841H410.945L366.207 696.851L323.013 704.144L313.639 726.024L323.013 742.96L308.606 752.158Z" fill="url(#paint13_linear_494_2)"/>
<path d="M475.817 831.776L458.48 877.966L442.385 917.485L458.48 947.814L466.961 936.108L475.817 917.485L500.566 936.108L532.165 898.33L528.152 865.872L609.405 809.471V770.999L541.806 780.206L504.579 831.776H475.817Z" fill="url(#paint14_linear_494_2)"/>
<path d="M467.428 800.779L475.817 831.776H504.579L541.806 780.206L475.817 770.999L467.428 800.779Z" fill="url(#paint15_linear_494_2)"/>
<path d="M416.538 578.544L341.041 600.36L327.06 623.918L349.43 630.689L364.249 651.31L383.543 623.918L428.841 592.378L446.177 600.36L452.888 592.378L416.538 578.544Z" fill="url(#paint16_linear_494_2)"/>
<path d="M366.207 480.639L341.041 505.648L313.639 532.252L334.33 534.913L341.041 600.36L416.538 578.544L458.48 558.325L475.817 519.482L528.152 501.391L541.806 470.53L534.672 475.851H510.489L495.551 466.273L485.519 483.832L467.428 501.391L450.41 498.73L446.177 501.391H428.841L416.538 505.648L404.235 501.391L416.538 480.639H441.144L452.888 466.273L467.428 470.53L475.817 451.907H485.519L490.357 435.412L504.579 432.219L510.489 419.449L529.155 405.083L541.806 409.871L557.465 400.294L581.819 389.12L590.346 395.505L584.867 405.083L556.741 419.449H541.806L538.685 432.219L529.155 435.412V457.227H549.635L556.741 444.457L564.175 441.265L584.867 424.238L605.393 405.083L596.611 424.238L622.948 435.412L649.029 389.12L692.665 395.505L703.198 378.478L672.602 367.304L661.066 373.689L649.029 357.727L633.982 367.304L617.862 357.727L611.412 367.304H596.611L590.346 378.478L581.819 373.689L510.489 395.505L481.507 409.871H467.428L434.36 415.724L410.945 424.238L383.543 480.639H366.207Z" fill="url(#paint17_linear_494_2)"/>
<path d="M564.175 441.265L556.741 444.457L549.635 457.227H529.155V462.016L541.806 470.53L578.81 512.565L557.465 525.867L569.782 534.913L623.951 546.618L649.029 534.913L623.951 498.73H611.412L599.374 470.53L578.81 466.273L564.175 441.265Z" fill="url(#paint18_linear_494_2)"/>
<path d="M717.743 936.108V912.164L706.207 862.772L672.101 831.776L649.029 845.754L634.985 804.15L609.405 770.999V809.471L528.152 865.872H573.794L629.969 898.33L637.994 929.191H685.141L711.223 953.135L717.743 936.108Z" fill="url(#paint19_linear_494_2)"/>
<path d="M652.038 699.86L637.994 718.123L649.029 759.454L664.577 754.133L685.141 800.779L672.101 831.776L706.207 862.772L762.382 816.388L717.743 781.331L737.304 768.5L749.341 754.666L726.771 742.96H698.182L655.048 718.123L652.038 699.86Z" fill="url(#paint20_linear_494_2)"/>
<path d="M649.029 845.754L672.101 831.776L685.141 800.779L664.577 754.133L649.029 759.454L609.405 770.999L634.985 804.15L649.029 845.754Z" fill="url(#paint21_linear_494_2)"/>
<path d="M693.166 671.932L726.771 631.211L652.038 699.86L655.048 718.123L698.182 742.96L712.226 726.024L737.304 729.657L749.341 712.653L722.257 682.301L693.166 671.932Z" fill="url(#paint22_linear_494_2)"/>
<path d="M774.921 787.123L737.304 768.5L717.743 781.331L762.382 816.388L706.207 862.772L717.743 912.164L747.335 917.485V930.255L762.382 936.108L774.921 964.841L826.081 986.657L843.134 972.822L871.221 979.74V999.959L913.353 1027.63L928.901 993.042L939.434 1016.45H963.509V986.657L995.609 979.74L939.434 929.191L963.509 912.164L928.901 862.772L913.353 839.8L928.901 809.471L919.873 780.206L890.782 768.5L844.137 754.666L805.516 787.123L785.956 780.206L774.921 787.123Z" fill="url(#paint23_linear_494_2)"/>
<path d="M878.745 687.622L860.688 704.144H832.601L799.999 696.851L774.921 679.109L761.379 659.169L805.516 623.918L757.868 609.937L740.815 638.67L726.771 631.211L693.166 671.932L722.257 682.301L749.341 712.653L737.304 729.657L712.226 726.024L698.182 742.96H726.771L749.341 754.666L737.304 768.5L774.921 787.123L785.956 780.206L805.516 787.123L844.137 754.666L890.782 768.5L919.873 780.206L928.901 809.471L952.474 816.388L963.509 798.297H988.085L995.609 768.5H1022.69L995.609 742.96L963.509 729.657L928.901 712.653L902.82 687.734L878.745 687.622Z" fill="url(#paint24_linear_494_2)"/>
<path d="M1169.15 704.144L1149.09 699.86L1130.53 679.109H1084.89L1022.69 704.144L995.609 687.622L963.509 671.932L933.917 679.109L902.82 661.018L890.782 623.918L866.206 650.376H844.137L866.206 671.932L878.745 687.622L902.82 687.734L928.901 712.653L963.509 729.657L995.609 742.96L1022.69 768.5H995.609L988.085 798.297H963.509L952.474 816.388L928.901 809.471L913.353 839.8L928.901 862.772L963.509 912.164L939.434 929.191H1035.73V887.688L1048.27 898.33L1060.81 877.966H1075.86L1084.89 831.776L1137.55 854.698L1149.09 839.8L1130.53 809.471L1158.62 804.15L1154.6 787.123V759.454L1189.71 768.5L1172.16 749.877L1149.09 737.639L1183.69 729.657V712.653L1152.6 719.016L1169.15 704.144Z" fill="url(#paint25_linear_494_2)"/>
<path d="M1175.17 854.698L1149.09 839.8L1137.55 854.698L1084.89 831.776L1075.86 877.966H1060.81L1048.27 898.33L1035.73 887.688V929.191H939.434L995.609 979.74L963.509 986.657V1016.45H1035.73H1060.81L1075.86 1051.57L1088.9 1046.25L1137.55 1039.33L1104.45 1012.73L1152.6 917.485L1158.62 887.688L1137.55 865.872L1175.17 854.698Z" fill="url(#paint26_linear_494_2)"/>
<path d="M1442 704.144V593.442L1424.95 623.918L1372.28 593.442L1336.67 583.865L1286.52 558.325L1263.44 583.865L1217.3 558.325L1205.26 583.865L1263.44 638.67V661.018H1293.54L1330.65 674.852L1366.26 704.144L1388.83 696.851L1430.46 726.024L1442 704.144Z" fill="url(#paint27_linear_494_2)"/>
<path d="M201.233 664.031H183.896L171.593 648.229L155.375 655.522V678.618L135.802 687.734L116.229 702.321L96.0966 687.734L83.7935 702.321L68.1349 733.317L36.8178 752.158L22.837 744.864L4.38226 752.158L-2 760.519M201.233 664.031L216.891 655.522L257.156 712.653L251.004 733.317H268.341V712.653H292.947L261.63 655.522L272.815 648.229H285.118M201.233 664.031L227.716 600.36L278.875 578.544L263.327 532.252M285.118 648.229L313.639 687.734M285.118 648.229V630.689H308.606V614.194L341.041 600.36M313.639 687.734L301.336 712.653L308.606 726.024L301.336 740.002L308.606 752.158M313.639 687.734L334.33 671.932L366.207 696.851M308.606 752.158L301.336 770.999L313.639 781.331L327.06 760.666H349.43L358.937 744.864L341.041 740.002V718.123H349.43L352.785 729.67L366.207 712.653L392.491 718.123V744.864L383.543 770.999L404.235 781.331L428.841 770.999L446.177 792.27L467.428 800.779M308.606 752.158L323.013 742.96L313.639 726.024L323.013 704.144L366.207 696.851M467.428 800.779L475.817 831.776M467.428 800.779L475.817 770.999L541.806 780.206M475.817 831.776L458.48 877.966M475.817 831.776H504.579L541.806 780.206M458.48 877.966L404.235 868.849L379.069 891.945L334.33 877.966L327.06 883.436M458.48 877.966L442.385 917.485M327.06 883.436L308.606 877.966L301.336 862.772L285.118 854.871L292.947 845.754L272.815 837.853L251.004 845.754L230.872 891.945L190.607 862.772L183.896 837.853L155.375 819.012M327.06 883.436L301.336 912.164V947.814L278.875 1046.25L271.101 1081.63M155.375 819.012L145.868 800.779H159.849L164.323 781.331H171.593V770.999L178.304 752.158L164.323 744.864L145.868 752.158M155.375 819.012L116.229 845.754V877.966L96.0966 891.945M145.868 752.158H116.229H102.248H87.7081L59.1872 770.999H36.8178L22.837 781.331H4.38226L-2 760.519M145.868 752.158L128.406 800.779L102.248 809.471L108.845 842.992L96.0966 891.945M-2 760.519V726.024L22.837 698.264L47.1532 704.144L56.1813 684.43L36.8178 664.031L50.1626 643.991L102.248 655.522L135.802 630.689L155.375 592.378L151.98 578.544L159.849 566.838L178.304 572.159L201.233 554.6L213.672 558.325L227.716 542.362L221.697 534.913L207.152 542.362L190.607 534.913L155.375 519.482L178.304 505.648L194.613 512.565L207.152 493.942L237.747 505.648L278.875 466.273H292.947L288.907 480.639L278.875 483.832L261.63 512.565L263.327 532.252M-2 760.519V1125L12.5453 1117.02L4.38226 1070.19L68.1349 1016.45M441.144 671.932L416.538 687.734L410.945 704.144M441.144 671.932L452.888 637.289L475.817 623.918L490.357 637.289L510.489 631.211L516.081 637.289L549.635 614.194M441.144 671.932H379.069M549.635 614.194L564.175 623.918L541.806 648.229L573.794 650.376L600.879 661.018L637.994 682.301L652.038 699.86M549.635 614.194L532.165 600.36L562.258 566.838L549.635 554.6L569.782 534.913M652.038 699.86L637.994 718.123M652.038 699.86L655.048 718.123L698.182 742.96M652.038 699.86L726.771 631.211M637.994 718.123L617.862 712.653V726.024L596.611 712.653L557.465 718.123L541.806 726.024V704.144L510.489 687.734L475.817 696.851L458.48 704.144H428.841H410.945M637.994 718.123L649.029 759.454M410.945 704.144L366.207 696.851M263.327 532.252L288.907 516.289H308.606L323.013 501.391L341.041 505.648M341.041 505.648L366.207 480.639H383.543L410.945 424.238L434.36 415.724L467.428 409.871H481.507L510.489 395.505L581.819 373.689L590.346 378.478L596.611 367.304H611.412L617.862 357.727L633.982 367.304L649.029 357.727L661.066 373.689L672.602 367.304L703.198 378.478L692.665 395.505M341.041 505.648L313.639 532.252L334.33 534.913L341.041 600.36M692.665 395.505L649.029 389.12L622.948 435.412L596.611 424.238L605.393 405.083L584.867 424.238L564.175 441.265M692.665 395.505H709.216L749.341 400.294L774.921 383.267L798.495 378.478L814.545 383.267L824.074 357.727L880.249 383.267L845.14 357.727V344.957L880.249 362.516L905.328 378.478L897.303 350.81C1013 360.032 1283.91 421.471 1442 593.442M564.175 441.265L556.741 444.457L549.635 457.227H529.155M564.175 441.265L578.81 466.273L599.374 470.53L611.412 498.73H623.951L649.029 534.913L623.951 546.618L569.782 534.913M529.155 457.227V435.412L538.685 432.219L541.806 419.449H556.741L584.867 405.083L590.346 395.505L581.819 389.12L557.465 400.294L541.806 409.871L529.155 405.083L510.489 419.449L504.579 432.219L490.357 435.412L485.519 451.907H475.817L467.428 470.53L452.888 466.273L441.144 480.639H416.538L404.235 501.391L416.538 505.648L428.841 501.391H446.177L450.41 498.73L467.428 501.391L485.519 483.832L495.551 466.273L510.489 475.851H534.672L541.806 470.53M529.155 457.227V462.016L541.806 470.53M541.806 470.53L528.152 501.391L475.817 519.482L458.48 558.325L416.538 578.544M541.806 470.53L578.81 512.565L557.465 525.867L569.782 534.913M1442 593.442V704.144M1442 593.442L1424.95 623.918L1372.28 593.442L1336.67 583.865L1286.52 558.325L1263.44 583.865L1217.3 558.325L1205.26 583.865M1442 704.144L1430.46 726.024L1388.83 696.851L1366.26 704.144L1330.65 674.852L1293.54 661.018H1263.44V638.67L1205.26 583.865M1442 704.144V1070.19H1430.46M1205.26 583.865L1175.17 605.148V638.67L1189.71 656.761L1158.62 650.376L1152.6 656.761L1180.69 674.852L1175.17 687.622L1183.69 699.86L1169.15 704.144M1205.26 583.865L1121.5 558.325L1035.73 519.482L995.609 505.648L857.177 483.832L845.14 534.913H774.921L749.341 554.6L706.207 546.618L693.166 583.865L737.304 609.937M1169.15 704.144L1149.09 699.86L1130.53 679.109M1169.15 704.144L1152.6 719.016L1183.69 712.653V729.657L1149.09 737.639L1172.16 749.877L1189.71 768.5L1154.6 759.454V787.123L1158.62 804.15L1130.53 809.471L1149.09 839.8M1130.53 679.109H1084.89L1022.69 704.144L995.609 687.622L963.509 671.932L933.917 679.109L902.82 661.018L890.782 623.918L866.206 650.376H844.137L866.206 671.932L878.745 687.622M1130.53 679.109L1137.55 661.018M878.745 687.622L860.688 704.144H832.601L799.999 696.851L774.921 679.109L761.379 659.169L805.516 623.918L757.868 609.937L740.815 638.67L726.771 631.211M878.745 687.622L902.82 687.734L928.901 712.653L963.509 729.657L995.609 742.96L1022.69 768.5H995.609L988.085 798.297H963.509L952.474 816.388L928.901 809.471M726.771 631.211L693.166 671.932L722.257 682.301L749.341 712.653L737.304 729.657L712.226 726.024L698.182 742.96M698.182 742.96H726.771L749.341 754.666L737.304 768.5M737.304 768.5L774.921 787.123L785.956 780.206L805.516 787.123L844.137 754.666L890.782 768.5L919.873 780.206L928.901 809.471M737.304 768.5L717.743 781.331L762.382 816.388L706.207 862.772M928.901 809.471L913.353 839.8L928.901 862.772L963.509 912.164L939.434 929.191M1149.09 839.8L1175.17 854.698M1149.09 839.8L1137.55 854.698L1084.89 831.776L1075.86 877.966H1060.81L1048.27 898.33L1035.73 887.688V929.191H939.434M1175.17 854.698L1189.71 846.185L1224.82 865.872L1217.3 887.688L1263.44 912.164V936.108L1316.11 972.822L1352.72 993.042L1393.85 986.657L1410.9 972.822V993.042L1393.85 1016.45L1410.9 1051.57L1430.46 1070.19M1175.17 854.698L1137.55 865.872L1158.62 887.688L1152.6 917.485L1104.45 1012.73L1137.55 1039.33L1088.9 1046.25M1430.46 1070.19L1388.83 1112.76M1175.17 1101.06L1152.6 1105.84L1130.53 1112.76L1111.47 1087.22L1137.55 1070.19L1111.47 1059.02L1096.42 1070.19L1088.9 1046.25M1088.9 1046.25L1075.86 1051.57L1060.81 1016.45H1035.73H963.509M963.509 1016.45H939.434L928.901 993.042L913.353 1027.63L871.221 999.959V979.74L843.134 972.822L826.081 986.657L774.921 964.841L762.382 936.108L747.335 930.255V917.485L717.743 912.164M963.509 1016.45V986.657L995.609 979.74L939.434 929.191M717.743 912.164V936.108L711.223 953.135M717.743 912.164L706.207 862.772M711.223 953.135L728.777 972.822L753.354 993.042M711.223 953.135L685.141 929.191H637.994L629.969 898.33L573.794 865.872H528.152M753.354 993.042V1016.45L768.902 999.959L774.921 1016.45L762.382 1027.63L768.902 1051.57L785.956 1059.02L798.996 1046.25M753.354 993.042L737.304 1039.33L717.743 1023.37L706.207 1046.25H528.152M798.996 1046.25H812.037L839.121 1012.73L857.177 999.959L865.203 1016.45L852.162 1039.33L885.767 1051.57L928.901 1087.22M798.996 1046.25L845.14 1075.52M532.165 1101.59L528.152 1046.25M528.152 1046.25L509.093 1012.73L515.613 999.959H500.566L485.519 953.135L466.961 936.108M466.961 936.108L458.48 947.814L442.385 917.485M466.961 936.108L475.817 917.485L500.566 936.108L532.165 898.33L528.152 865.872M442.385 917.485L432.354 936.108L458.48 972.822L466.961 1023.37L458.48 1046.25M458.48 1046.25L485.519 1075.52M458.48 1046.25L432.354 1081.63L410.945 1070.19L383.543 1059.02L352.785 1125V1075.52L271.101 1081.63M341.041 600.36L416.538 578.544M341.041 600.36L327.06 623.918L349.43 630.689L364.249 651.31M416.538 578.544L452.888 592.378L446.177 600.36L428.841 592.378L383.543 623.918L364.249 651.31M366.207 696.851L379.069 671.932M379.069 671.932L364.249 651.31M68.1349 1016.45L59.1872 964.841L96.0966 891.945M68.1349 1016.45L108.845 1046.25L145.868 1027.63L237.747 1117.02H263.327L271.101 1081.63M528.152 865.872L609.405 809.471V770.999M609.405 770.999L541.806 780.206M609.405 770.999L634.985 804.15L649.029 845.754L672.101 831.776M609.405 770.999L649.029 759.454M706.207 862.772L672.101 831.776M672.101 831.776L685.141 800.779L664.577 754.133L649.029 759.454" stroke="white" stroke-opacity="0.7" stroke-width="3"/>
<path d="M1068.87 430.231L1110.5 309.542" stroke="#CAB8FF" stroke-width="4" stroke-linecap="round"/>
<path d="M1109.04 314.954C1108.73 315.195 1108.27 315 1108.23 314.61L1105.66 289.243C1105.62 288.864 1106 288.583 1106.35 288.733L1129.07 298.466C1129.42 298.616 1129.48 299.087 1129.18 299.32L1109.04 314.954Z" fill="#CAB8FF" stroke="#CAB8FF"/>
<path d="M1113.39 297.984L1108.64 295.473L1107.4 292.162C1107.4 292.162 1101.59 291.448 1098.16 290.051C1094.73 288.654 1091.62 286.404 1089.08 284.201C1086.54 281.997 1085.17 280.626 1083.26 277.86C1081.35 275.095 1078.37 266.487 1078.37 266.487L1086.79 274.116L1093.75 279.702L1098.3 283.371L1109.48 287.358L1098.82 281.906L1092.4 276.559L1087.22 268.754L1085.94 261.831L1085.74 256.794L1089.98 261.006L1088.17 254.204L1089.77 254.899L1090.17 249.968L1091.91 255.832L1095.37 253.731L1094.52 265.816L1099.42 267.912L1103.24 271.747L1102.32 264.001L1106.06 261.597L1109.84 253.216L1110.61 261.405L1113.01 251.518L1117.04 263.111L1115.1 268.557L1120 274.901L1128.91 271.759L1132.61 267.004L1142.91 258.199L1138.96 269.268L1144.29 262.669L1142.84 274.706L1145.31 278.19L1143.44 283.456L1151.5 282.935L1162.05 275.59L1159.53 282.67L1165.03 277.809L1162.4 285.172L1166.77 288.375L1165.43 291.441L1162.57 291.775L1151.98 292.448C1151.98 292.448 1155.38 294.387 1157.8 294.796C1160.21 295.204 1169.68 291.545 1169.68 291.545L1164.47 296.899C1164.47 296.899 1159.36 299.29 1155.88 300.181C1152.4 301.072 1150.04 301.628 1146.26 301.441C1142.48 301.255 1138.96 299.003 1136.61 299.151C1134.27 299.3 1133.12 300.455 1130.78 300.586C1128.43 300.716 1124.25 297.611 1122.63 298.774C1121.02 299.937 1118.88 302.674 1118.88 302.674L1115.78 301.569L1116.21 298.989L1113.39 297.984Z" fill="#CAB8FF"/>
<path d="M1117.15 300.669L1116.21 298.989M1116.21 298.989L1113.39 297.984L1108.64 295.473L1107.4 292.162C1107.4 292.162 1101.59 291.448 1098.16 290.051C1094.73 288.654 1091.62 286.404 1089.08 284.201C1086.54 281.997 1085.17 280.626 1083.26 277.86C1081.35 275.095 1078.37 266.487 1078.37 266.487L1086.79 274.116L1093.75 279.702L1098.3 283.371L1109.48 287.358L1098.82 281.906L1092.4 276.559L1087.22 268.754L1085.94 261.831L1085.74 256.794L1089.98 261.006L1088.17 254.204L1089.77 254.899L1090.17 249.968L1091.91 255.832L1095.37 253.731L1094.52 265.816L1099.42 267.912L1103.24 271.747L1102.32 264.001L1106.06 261.597L1109.84 253.216L1110.61 261.405L1113.01 251.518L1117.04 263.111L1115.1 268.557L1120 274.901L1128.91 271.759L1132.61 267.004L1142.91 258.199L1138.96 269.268L1144.29 262.669L1142.84 274.706L1145.31 278.19L1143.44 283.456L1151.5 282.935L1162.05 275.59L1159.53 282.67L1165.03 277.809L1162.4 285.172L1166.77 288.375L1165.43 291.441L1162.57 291.775L1151.98 292.448C1151.98 292.448 1155.38 294.387 1157.8 294.796C1160.21 295.204 1169.68 291.545 1169.68 291.545L1164.47 296.899C1164.47 296.899 1159.36 299.29 1155.88 300.181C1152.4 301.072 1150.04 301.628 1146.26 301.441C1142.48 301.255 1138.96 299.003 1136.61 299.151C1134.27 299.3 1133.12 300.455 1130.78 300.586C1128.43 300.716 1124.25 297.611 1122.63 298.774C1121.02 299.937 1118.88 302.674 1118.88 302.674L1115.78 301.569L1116.21 298.989Z" stroke="#CAB8FF" stroke-width="3"/>
<path d="M452.922 424.66L413.268 303.309" stroke="#CAB8FF" stroke-width="4" stroke-linecap="round"/>
<path d="M415.371 308.505C415.269 308.884 414.789 309.003 414.522 308.715L397.158 290.044C396.899 289.765 397.034 289.31 397.404 289.218L421.391 283.268C421.761 283.176 422.093 283.515 421.994 283.883L415.371 308.505Z" fill="#CAB8FF" stroke="#CAB8FF"/>
<path d="M408.6 292.346L403.294 293.214L400.305 291.324C400.305 291.324 395.241 294.261 391.666 295.216C388.091 296.17 384.252 296.253 380.898 296.029C377.543 295.805 375.621 295.54 372.428 294.489C369.235 293.438 361.669 288.369 361.669 288.369L372.981 289.374L381.907 289.623L387.747 289.804L399.071 286.232L387.279 288.321L378.934 287.931L370.088 284.839L364.889 280.092L361.69 276.195L367.614 276.994L362.064 272.665L363.758 272.254L361.101 268.081L366.033 271.703L367.523 267.94L374.135 278.091L379.309 276.802L384.669 277.556L379.258 271.936L380.793 267.76L378.751 258.793L384.307 264.859L380.246 255.531L390.46 262.34L392.199 267.854L399.94 269.951L405.147 262.069L405.224 256.047L408.12 242.812L411.655 254.019L411.921 245.54L418.03 256.014L422.104 257.299L423.786 262.63L429.905 257.345L433.879 245.124L436.14 252.292L437.592 245.097L439.943 252.551L445.356 252.471L446.143 255.72L444.064 257.713L436.029 264.64C436.029 264.64 439.909 264.135 442.08 263.004C444.251 261.874 449.591 253.242 449.591 253.242L448.671 260.652C448.671 260.652 446.037 265.646 443.8 268.457C441.562 271.268 440.022 273.131 436.893 275.266C433.764 277.4 429.597 277.731 427.819 279.263C426.04 280.795 425.82 282.41 424.031 283.929C422.241 285.448 417.03 285.498 416.444 287.4C415.857 289.302 415.81 292.771 415.81 292.771L412.671 293.761L411.454 291.446L408.6 292.346Z" fill="#CAB8FF"/>
<path d="M413.216 292.22L411.454 291.446M411.454 291.446L408.6 292.346L403.294 293.214L400.305 291.324C400.305 291.324 395.241 294.261 391.666 295.216C388.091 296.17 384.252 296.253 380.898 296.029C377.543 295.805 375.621 295.54 372.428 294.489C369.235 293.438 361.669 288.369 361.669 288.369L372.981 289.374L381.907 289.623L387.747 289.804L399.071 286.232L387.279 288.321L378.934 287.931L370.088 284.839L364.889 280.092L361.69 276.195L367.614 276.994L362.064 272.665L363.758 272.254L361.101 268.081L366.033 271.703L367.523 267.94L374.135 278.091L379.309 276.802L384.669 277.556L379.258 271.936L380.793 267.76L378.751 258.793L384.307 264.859L380.246 255.531L390.46 262.34L392.199 267.854L399.94 269.951L405.147 262.069L405.224 256.047L408.12 242.812L411.655 254.019L411.921 245.54L418.03 256.014L422.104 257.299L423.786 262.63L429.905 257.345L433.879 245.124L436.14 252.292L437.592 245.097L439.943 252.551L445.356 252.471L446.143 255.72L444.064 257.713L436.029 264.64C436.029 264.64 439.909 264.135 442.08 263.004C444.251 261.874 449.591 253.242 449.591 253.242L448.671 260.652C448.671 260.652 446.037 265.646 443.8 268.457C441.562 271.268 440.022 273.131 436.893 275.266C433.764 277.4 429.597 277.731 427.819 279.263C426.04 280.795 425.82 282.41 424.031 283.929C422.241 285.448 417.03 285.498 416.444 287.4C415.857 289.302 415.81 292.771 415.81 292.771L412.671 293.761L411.454 291.446Z" stroke="#CAB8FF" stroke-width="3"/>
<path d="M915 543L876.781 321.231" stroke="#CAB8FF" stroke-width="4" stroke-linecap="round"/>
<path d="M878.883 326.427C878.781 326.806 878.302 326.925 878.034 326.638L860.67 307.966C860.411 307.687 860.547 307.233 860.916 307.141L884.904 301.19C885.274 301.099 885.605 301.438 885.506 301.805L878.883 326.427Z" fill="#CAB8FF" stroke="#CAB8FF"/>
<path d="M872.113 310.269L866.806 311.136L863.818 309.246C863.818 309.246 858.754 312.184 855.179 313.138C851.604 314.092 847.765 314.176 844.41 313.952C841.056 313.727 839.134 313.462 835.941 312.411C832.747 311.36 825.182 306.291 825.182 306.291L836.494 307.297L845.419 307.546L851.259 307.727L862.583 304.155L850.792 306.243L842.447 305.853L833.601 302.761L828.402 298.014L825.203 294.118L831.127 294.916L825.577 290.587L827.271 290.176L824.613 286.003L829.545 289.625L831.035 285.862L837.648 296.013L842.822 294.725L848.182 295.478L842.771 289.858L844.306 285.682L842.263 276.716L847.819 282.781L843.759 273.454L853.973 280.263L855.712 285.776L863.453 287.874L868.659 279.991L868.736 273.97L871.633 260.734L875.168 271.941L875.434 263.462L881.542 273.936L885.617 275.221L887.299 280.552L893.417 275.268L897.391 263.046L899.653 270.215L901.105 263.019L903.456 270.474L908.868 270.394L909.656 273.643L907.577 275.636L899.542 282.563C899.542 282.563 903.421 282.057 905.592 280.926C907.763 279.796 913.103 271.164 913.103 271.164L912.184 278.575C912.184 278.575 909.55 283.568 907.312 286.379C905.075 289.19 903.535 291.054 900.406 293.188C897.277 295.322 893.11 295.653 891.331 297.185C889.553 298.717 889.333 300.333 887.543 301.851C885.754 303.37 880.543 303.42 879.956 305.322C879.37 307.224 879.323 310.694 879.323 310.694L876.184 311.684L874.967 309.368L872.113 310.269Z" fill="#CAB8FF"/>
<path d="M876.729 310.142L874.967 309.368M874.967 309.368L872.113 310.269L866.806 311.136L863.818 309.246C863.818 309.246 858.754 312.184 855.179 313.138C851.604 314.092 847.765 314.176 844.41 313.952C841.056 313.727 839.134 313.462 835.941 312.411C832.747 311.36 825.182 306.291 825.182 306.291L836.494 307.297L845.419 307.546L851.259 307.727L862.583 304.155L850.792 306.243L842.447 305.853L833.601 302.761L828.402 298.014L825.203 294.118L831.127 294.916L825.577 290.587L827.271 290.176L824.613 286.003L829.545 289.625L831.035 285.862L837.648 296.013L842.822 294.725L848.182 295.478L842.771 289.858L844.306 285.682L842.263 276.716L847.819 282.781L843.759 273.454L853.973 280.263L855.712 285.776L863.453 287.874L868.659 279.991L868.736 273.97L871.633 260.734L875.168 271.941L875.434 263.462L881.542 273.936L885.617 275.221L887.299 280.552L893.417 275.268L897.391 263.046L899.653 270.215L901.105 263.019L903.456 270.474L908.868 270.394L909.656 273.643L907.577 275.636L899.542 282.563C899.542 282.563 903.421 282.057 905.592 280.926C907.763 279.796 913.103 271.164 913.103 271.164L912.184 278.575C912.184 278.575 909.55 283.568 907.312 286.379C905.075 289.19 903.535 291.054 900.406 293.188C897.277 295.322 893.11 295.653 891.331 297.185C889.553 298.717 889.333 300.333 887.543 301.851C885.754 303.37 880.543 303.42 879.956 305.322C879.37 307.224 879.323 310.694 879.323 310.694L876.184 311.684L874.967 309.368Z" stroke="#CAB8FF" stroke-width="3"/>
<path d="M608.94 395.5L608.94 331.511" stroke="#CAB8FF" stroke-width="4" stroke-linecap="round"/>
<path d="M609.511 337.084C609.308 337.42 608.814 337.401 608.637 337.051L597.144 314.29C596.973 313.95 597.23 313.551 597.61 313.565L622.307 314.514C622.687 314.529 622.911 314.946 622.714 315.272L609.511 337.084Z" fill="#CAB8FF" stroke="#CAB8FF"/>
<path d="M607.471 319.77L602.132 319.129L599.787 316.483C599.787 316.483 594.106 317.898 590.407 317.821C586.707 317.744 582.996 316.758 579.836 315.611C576.676 314.464 574.903 313.675 572.128 311.778C569.352 309.881 563.493 302.91 563.493 302.91L574.081 307.018L582.585 309.738L588.145 311.534L600.015 311.249L588.108 309.979L580.2 307.286L572.562 301.858L568.886 295.853L566.896 291.221L572.364 293.634L568.236 287.934L569.977 288.01L568.584 283.263L572.315 288.112L574.792 284.911L578.324 296.5L583.652 296.7L588.592 298.912L584.955 292.011L587.59 288.425L588.119 279.245L591.771 286.615L590.462 276.527L598.382 285.905L598.521 291.685L605.374 295.85L612.566 289.725L614.313 283.962L620.772 272.053L621.055 283.8L623.666 275.729L626.624 287.488L630.181 289.854L630.316 295.443L637.662 292.066L644.875 281.43L645.055 288.945L648.449 282.436L648.637 290.25L653.858 291.677L653.712 295.017L651.162 296.354L641.518 300.776C641.518 300.776 645.385 301.368 647.785 300.885C650.184 300.402 657.713 293.594 657.713 293.594L654.771 300.457C654.771 300.457 650.853 304.522 647.922 306.601C644.992 308.68 642.994 310.042 639.396 311.223C635.797 312.404 631.702 311.564 629.568 312.541C627.434 313.519 626.774 315.01 624.633 315.971C622.492 316.933 617.472 315.533 616.38 317.197C615.289 318.861 614.279 322.181 614.279 322.181L610.989 322.26L610.463 319.698L607.471 319.77Z" fill="#CAB8FF"/>
<path d="M611.94 320.931L610.463 319.698M610.463 319.698L607.471 319.77L602.132 319.129L599.787 316.483C599.787 316.483 594.106 317.898 590.407 317.821C586.707 317.744 582.996 316.758 579.836 315.611C576.676 314.464 574.903 313.675 572.128 311.778C569.352 309.881 563.493 302.91 563.493 302.91L574.081 307.018L582.585 309.738L588.145 311.534L600.015 311.249L588.108 309.979L580.2 307.286L572.562 301.858L568.886 295.853L566.896 291.221L572.364 293.634L568.236 287.934L569.977 288.01L568.584 283.263L572.315 288.112L574.792 284.911L578.324 296.5L583.652 296.7L588.592 298.912L584.955 292.011L587.59 288.425L588.119 279.245L591.771 286.615L590.462 276.527L598.382 285.905L598.521 291.685L605.374 295.85L612.566 289.725L614.313 283.962L620.772 272.053L621.055 283.8L623.666 275.729L626.624 287.488L630.181 289.854L630.316 295.443L637.662 292.066L644.875 281.43L645.055 288.945L648.449 282.436L648.637 290.25L653.858 291.677L653.712 295.017L651.162 296.354L641.518 300.776C641.518 300.776 645.385 301.368 647.785 300.885C650.184 300.402 657.713 293.594 657.713 293.594L654.771 300.457C654.771 300.457 650.853 304.522 647.922 306.601C644.992 308.68 642.994 310.042 639.396 311.223C635.797 312.404 631.702 311.564 629.568 312.541C627.434 313.519 626.774 315.01 624.633 315.971C622.492 316.933 617.472 315.533 616.38 317.197C615.289 318.861 614.279 322.181 614.279 322.181L610.989 322.26L610.463 319.698Z" stroke="#CAB8FF" stroke-width="3"/>
<path d="M387 623.499L301.755 437.239" stroke="#CAB8FF" stroke-width="4" stroke-linecap="round"/>
<path d="M304.349 442.205C304.285 442.593 303.819 442.758 303.525 442.498L284.423 425.608C284.138 425.356 284.229 424.89 284.587 424.762L307.881 416.501C308.24 416.374 308.603 416.679 308.54 417.055L304.349 442.205Z" fill="#CAB8FF" stroke="#CAB8FF"/>
<path d="M292.48 425.848L287.249 427.092L284.133 425.42C284.133 425.42 279.292 428.711 275.794 429.918C272.296 431.125 268.473 431.483 265.111 431.498C261.749 431.514 259.813 431.387 256.553 430.566C253.292 429.746 245.385 425.23 245.385 425.23L256.74 425.425L265.66 425.037L271.498 424.801L282.538 420.43L270.926 423.354L262.574 423.561L253.53 421.108L248.006 416.744L244.537 413.086L250.502 413.46L244.658 409.538L246.318 409.007L243.37 405.034L248.547 408.295L249.765 404.435L257.085 414.089L262.154 412.434L267.554 412.803L261.756 407.584L262.989 403.308L260.312 394.511L266.286 400.164L261.571 391.15L272.244 397.213L274.373 402.589L282.244 404.128L286.874 395.894L286.521 389.882L288.466 376.474L292.791 387.4L292.452 378.924L299.292 388.935L303.448 389.926L305.506 395.123L311.232 389.416L314.324 376.942L317.091 383.931L318.026 376.65L320.903 383.917L326.296 383.451L327.313 386.636L325.382 388.772L317.862 396.255C317.862 396.255 321.695 395.474 323.78 394.191C325.865 392.909 330.575 383.918 330.575 383.918L330.187 391.375C330.187 391.375 327.916 396.544 325.885 399.507C323.854 402.471 322.45 404.439 319.481 406.792C316.513 409.144 312.38 409.771 310.715 411.426C309.051 413.081 308.947 414.708 307.27 416.351C305.593 417.993 300.399 418.415 299.95 420.354C299.501 422.293 299.702 425.757 299.702 425.757L296.641 426.969L295.262 424.746L292.48 425.848Z" fill="#CAB8FF"/>
<path d="M297.075 425.392L295.262 424.746M295.262 424.746L292.48 425.848L287.249 427.092L284.133 425.42C284.133 425.42 279.292 428.711 275.794 429.918C272.296 431.125 268.473 431.483 265.111 431.498C261.749 431.514 259.813 431.387 256.553 430.566C253.292 429.746 245.385 425.23 245.385 425.23L256.74 425.425L265.66 425.037L271.498 424.801L282.538 420.43L270.926 423.354L262.574 423.561L253.53 421.108L248.006 416.744L244.537 413.086L250.502 413.46L244.658 409.538L246.318 409.007L243.37 405.034L248.547 408.295L249.765 404.435L257.085 414.089L262.154 412.434L267.554 412.803L261.756 407.584L262.989 403.308L260.312 394.511L266.286 400.164L261.571 391.15L272.244 397.213L274.373 402.589L282.244 404.128L286.874 395.894L286.521 389.882L288.466 376.474L292.791 387.4L292.452 378.924L299.292 388.935L303.448 389.926L305.506 395.123L311.232 389.416L314.324 376.942L317.091 383.931L318.026 376.65L320.903 383.917L326.296 383.451L327.313 386.636L325.382 388.772L317.862 396.255C317.862 396.255 321.695 395.474 323.78 394.191C325.865 392.909 330.575 383.918 330.575 383.918L330.187 391.375C330.187 391.375 327.916 396.544 325.885 399.507C323.854 402.471 322.45 404.439 319.481 406.792C316.513 409.144 312.38 409.771 310.715 411.426C309.051 413.081 308.947 414.708 307.27 416.351C305.593 417.993 300.399 418.415 299.95 420.354C299.501 422.293 299.702 425.757 299.702 425.757L296.641 426.969L295.262 424.746Z" stroke="#CAB8FF" stroke-width="3"/>
<defs>
<linearGradient id="paint0_linear_494_2" x1="715" y1="0" x2="715" y2="1029" gradientUnits="userSpaceOnUse">
<stop stop-color="#68AEB8"/>
<stop offset="0.480769" stop-color="white" stop-opacity="0.2"/>
</linearGradient>
<linearGradient id="paint1_linear_494_2" x1="559.054" y1="1063" x2="672.729" y2="372.002" gradientUnits="userSpaceOnUse">
<stop stop-color="white" stop-opacity="0.8"/>
<stop offset="0.105769" stop-color="#ECF4F7" stop-opacity="0.809766"/>
<stop offset="0.317308" stop-color="#B1D1DD" stop-opacity="0.840285"/>
<stop offset="0.504808" stop-color="#6C8AA2" stop-opacity="0.910345"/>
<stop offset="0.677885" stop-color="#375375" stop-opacity="0.963919"/>
<stop offset="0.850962" stop-color="#142F57"/>
</linearGradient>
<linearGradient id="paint2_linear_494_2" x1="559.054" y1="1063" x2="672.729" y2="372.002" gradientUnits="userSpaceOnUse">
<stop stop-color="white" stop-opacity="0.8"/>
<stop offset="0.105769" stop-color="#ECF4F7" stop-opacity="0.809766"/>
<stop offset="0.317308" stop-color="#B1D1DD" stop-opacity="0.840285"/>
<stop offset="0.504808" stop-color="#6C8AA2" stop-opacity="0.910345"/>
<stop offset="0.677885" stop-color="#375375" stop-opacity="0.963919"/>
<stop offset="0.850962" stop-color="#142F57"/>
</linearGradient>
<linearGradient id="paint3_linear_494_2" x1="559.054" y1="1063" x2="672.729" y2="372.002" gradientUnits="userSpaceOnUse">
<stop stop-color="white" stop-opacity="0.8"/>
<stop offset="0.105769" stop-color="#ECF4F7" stop-opacity="0.809766"/>
<stop offset="0.317308" stop-color="#B1D1DD" stop-opacity="0.840285"/>
<stop offset="0.504808" stop-color="#6C8AA2" stop-opacity="0.910345"/>
<stop offset="0.677885" stop-color="#375375" stop-opacity="0.963919"/>
<stop offset="0.850962" stop-color="#142F57"/>
</linearGradient>
<linearGradient id="paint4_linear_494_2" x1="559.054" y1="1063" x2="672.729" y2="372.002" gradientUnits="userSpaceOnUse">
<stop stop-color="white" stop-opacity="0.8"/>
<stop offset="0.105769" stop-color="#ECF4F7" stop-opacity="0.809766"/>
<stop offset="0.317308" stop-color="#B1D1DD" stop-opacity="0.840285"/>
<stop offset="0.504808" stop-color="#6C8AA2" stop-opacity="0.910345"/>
<stop offset="0.677885" stop-color="#375375" stop-opacity="0.963919"/>
<stop offset="0.850962" stop-color="#142F57"/>
</linearGradient>
<linearGradient id="paint5_linear_494_2" x1="559.054" y1="1063" x2="672.729" y2="372.002" gradientUnits="userSpaceOnUse">
<stop stop-color="white" stop-opacity="0.8"/>
<stop offset="0.105769" stop-color="#ECF4F7" stop-opacity="0.809766"/>
<stop offset="0.317308" stop-color="#B1D1DD" stop-opacity="0.840285"/>
<stop offset="0.504808" stop-color="#6C8AA2" stop-opacity="0.910345"/>
<stop offset="0.677885" stop-color="#375375" stop-opacity="0.963919"/>
<stop offset="0.850962" stop-color="#142F57"/>
</linearGradient>
<linearGradient id="paint6_linear_494_2" x1="559.054" y1="1063" x2="672.729" y2="372.002" gradientUnits="userSpaceOnUse">
<stop stop-color="white" stop-opacity="0.8"/>
<stop offset="0.105769" stop-color="#ECF4F7" stop-opacity="0.809766"/>
<stop offset="0.317308" stop-color="#B1D1DD" stop-opacity="0.840285"/>
<stop offset="0.504808" stop-color="#6C8AA2" stop-opacity="0.910345"/>
<stop offset="0.677885" stop-color="#375375" stop-opacity="0.963919"/>
<stop offset="0.850962" stop-color="#142F57"/>
</linearGradient>
<linearGradient id="paint7_linear_494_2" x1="559.054" y1="1063" x2="672.729" y2="372.002" gradientUnits="userSpaceOnUse">
<stop stop-color="white" stop-opacity="0.8"/>
<stop offset="0.105769" stop-color="#ECF4F7" stop-opacity="0.809766"/>
<stop offset="0.317308" stop-color="#B1D1DD" stop-opacity="0.840285"/>
<stop offset="0.504808" stop-color="#6C8AA2" stop-opacity="0.910345"/>
<stop offset="0.677885" stop-color="#375375" stop-opacity="0.963919"/>
<stop offset="0.850962" stop-color="#142F57"/>
</linearGradient>
<linearGradient id="paint8_linear_494_2" x1="559.054" y1="1063" x2="672.729" y2="372.002" gradientUnits="userSpaceOnUse">
<stop stop-color="white" stop-opacity="0.8"/>
<stop offset="0.105769" stop-color="#ECF4F7" stop-opacity="0.809766"/>
<stop offset="0.317308" stop-color="#B1D1DD" stop-opacity="0.840285"/>
<stop offset="0.504808" stop-color="#6C8AA2" stop-opacity="0.910345"/>
<stop offset="0.677885" stop-color="#375375" stop-opacity="0.963919"/>
<stop offset="0.850962" stop-color="#142F57"/>
</linearGradient>
<linearGradient id="paint9_linear_494_2" x1="559.054" y1="1063" x2="672.729" y2="372.002" gradientUnits="userSpaceOnUse">
<stop stop-color="white" stop-opacity="0.8"/>
<stop offset="0.105769" stop-color="#ECF4F7" stop-opacity="0.809766"/>
<stop offset="0.317308" stop-color="#B1D1DD" stop-opacity="0.840285"/>
<stop offset="0.504808" stop-color="#6C8AA2" stop-opacity="0.910345"/>
<stop offset="0.677885" stop-color="#375375" stop-opacity="0.963919"/>
<stop offset="0.850962" stop-color="#142F57"/>
</linearGradient>
<linearGradient id="paint10_linear_494_2" x1="559.054" y1="1063" x2="672.729" y2="372.002" gradientUnits="userSpaceOnUse">
<stop stop-color="white" stop-opacity="0.8"/>
<stop offset="0.105769" stop-color="#ECF4F7" stop-opacity="0.809766"/>
<stop offset="0.317308" stop-color="#B1D1DD" stop-opacity="0.840285"/>
<stop offset="0.504808" stop-color="#6C8AA2" stop-opacity="0.910345"/>
<stop offset="0.677885" stop-color="#375375" stop-opacity="0.963919"/>
<stop offset="0.850962" stop-color="#142F57"/>
</linearGradient>
<linearGradient id="paint11_linear_494_2" x1="559.054" y1="1063" x2="672.729" y2="372.002" gradientUnits="userSpaceOnUse">
<stop stop-color="white" stop-opacity="0.8"/>
<stop offset="0.105769" stop-color="#ECF4F7" stop-opacity="0.809766"/>
<stop offset="0.317308" stop-color="#B1D1DD" stop-opacity="0.840285"/>
<stop offset="0.504808" stop-color="#6C8AA2" stop-opacity="0.910345"/>
<stop offset="0.677885" stop-color="#375375" stop-opacity="0.963919"/>
<stop offset="0.850962" stop-color="#142F57"/>
</linearGradient>
<linearGradient id="paint12_linear_494_2" x1="559.054" y1="1063" x2="672.729" y2="372.002" gradientUnits="userSpaceOnUse">
<stop stop-color="white" stop-opacity="0.8"/>
<stop offset="0.105769" stop-color="#ECF4F7" stop-opacity="0.809766"/>
<stop offset="0.317308" stop-color="#B1D1DD" stop-opacity="0.840285"/>
<stop offset="0.504808" stop-color="#6C8AA2" stop-opacity="0.910345"/>
<stop offset="0.677885" stop-color="#375375" stop-opacity="0.963919"/>
<stop offset="0.850962" stop-color="#142F57"/>
</linearGradient>
<linearGradient id="paint13_linear_494_2" x1="559.054" y1="1063" x2="672.729" y2="372.002" gradientUnits="userSpaceOnUse">
<stop stop-color="white" stop-opacity="0.8"/>
<stop offset="0.105769" stop-color="#ECF4F7" stop-opacity="0.809766"/>
<stop offset="0.317308" stop-color="#B1D1DD" stop-opacity="0.840285"/>
<stop offset="0.504808" stop-color="#6C8AA2" stop-opacity="0.910345"/>
<stop offset="0.677885" stop-color="#375375" stop-opacity="0.963919"/>
<stop offset="0.850962" stop-color="#142F57"/>
</linearGradient>
<linearGradient id="paint14_linear_494_2" x1="559.054" y1="1063" x2="672.729" y2="372.002" gradientUnits="userSpaceOnUse">
<stop stop-color="white" stop-opacity="0.8"/>
<stop offset="0.105769" stop-color="#ECF4F7" stop-opacity="0.809766"/>
<stop offset="0.317308" stop-color="#B1D1DD" stop-opacity="0.840285"/>
<stop offset="0.504808" stop-color="#6C8AA2" stop-opacity="0.910345"/>
<stop offset="0.677885" stop-color="#375375" stop-opacity="0.963919"/>
<stop offset="0.850962" stop-color="#142F57"/>
</linearGradient>
<linearGradient id="paint15_linear_494_2" x1="559.054" y1="1063" x2="672.729" y2="372.002" gradientUnits="userSpaceOnUse">
<stop stop-color="white" stop-opacity="0.8"/>
<stop offset="0.105769" stop-color="#ECF4F7" stop-opacity="0.809766"/>
<stop offset="0.317308" stop-color="#B1D1DD" stop-opacity="0.840285"/>
<stop offset="0.504808" stop-color="#6C8AA2" stop-opacity="0.910345"/>
<stop offset="0.677885" stop-color="#375375" stop-opacity="0.963919"/>
<stop offset="0.850962" stop-color="#142F57"/>
</linearGradient>
<linearGradient id="paint16_linear_494_2" x1="559.054" y1="1063" x2="672.729" y2="372.002" gradientUnits="userSpaceOnUse">
<stop stop-color="white" stop-opacity="0.8"/>
<stop offset="0.105769" stop-color="#ECF4F7" stop-opacity="0.809766"/>
<stop offset="0.317308" stop-color="#B1D1DD" stop-opacity="0.840285"/>
<stop offset="0.504808" stop-color="#6C8AA2" stop-opacity="0.910345"/>
<stop offset="0.677885" stop-color="#375375" stop-opacity="0.963919"/>
<stop offset="0.850962" stop-color="#142F57"/>
</linearGradient>
<linearGradient id="paint17_linear_494_2" x1="559.054" y1="1063" x2="672.729" y2="372.002" gradientUnits="userSpaceOnUse">
<stop stop-color="white" stop-opacity="0.8"/>
<stop offset="0.105769" stop-color="#ECF4F7" stop-opacity="0.809766"/>
<stop offset="0.317308" stop-color="#B1D1DD" stop-opacity="0.840285"/>
<stop offset="0.504808" stop-color="#6C8AA2" stop-opacity="0.910345"/>
<stop offset="0.677885" stop-color="#375375" stop-opacity="0.963919"/>
<stop offset="0.850962" stop-color="#142F57"/>
</linearGradient>
<linearGradient id="paint18_linear_494_2" x1="559.054" y1="1063" x2="672.729" y2="372.002" gradientUnits="userSpaceOnUse">
<stop stop-color="white" stop-opacity="0.8"/>
<stop offset="0.105769" stop-color="#ECF4F7" stop-opacity="0.809766"/>
<stop offset="0.317308" stop-color="#B1D1DD" stop-opacity="0.840285"/>
<stop offset="0.504808" stop-color="#6C8AA2" stop-opacity="0.910345"/>
<stop offset="0.677885" stop-color="#375375" stop-opacity="0.963919"/>
<stop offset="0.850962" stop-color="#142F57"/>
</linearGradient>
<linearGradient id="paint19_linear_494_2" x1="559.054" y1="1063" x2="672.729" y2="372.002" gradientUnits="userSpaceOnUse">
<stop stop-color="white" stop-opacity="0.8"/>
<stop offset="0.105769" stop-color="#ECF4F7" stop-opacity="0.809766"/>
<stop offset="0.317308" stop-color="#B1D1DD" stop-opacity="0.840285"/>
<stop offset="0.504808" stop-color="#6C8AA2" stop-opacity="0.910345"/>
<stop offset="0.677885" stop-color="#375375" stop-opacity="0.963919"/>
<stop offset="0.850962" stop-color="#142F57"/>
</linearGradient>
<linearGradient id="paint20_linear_494_2" x1="559.054" y1="1063" x2="672.729" y2="372.002" gradientUnits="userSpaceOnUse">
<stop stop-color="white" stop-opacity="0.8"/>
<stop offset="0.105769" stop-color="#ECF4F7" stop-opacity="0.809766"/>
<stop offset="0.317308" stop-color="#B1D1DD" stop-opacity="0.840285"/>
<stop offset="0.504808" stop-color="#6C8AA2" stop-opacity="0.910345"/>
<stop offset="0.677885" stop-color="#375375" stop-opacity="0.963919"/>
<stop offset="0.850962" stop-color="#142F57"/>
</linearGradient>
<linearGradient id="paint21_linear_494_2" x1="559.054" y1="1063" x2="672.729" y2="372.002" gradientUnits="userSpaceOnUse">
<stop stop-color="white" stop-opacity="0.8"/>
<stop offset="0.105769" stop-color="#ECF4F7" stop-opacity="0.809766"/>
<stop offset="0.317308" stop-color="#B1D1DD" stop-opacity="0.840285"/>
<stop offset="0.504808" stop-color="#6C8AA2" stop-opacity="0.910345"/>
<stop offset="0.677885" stop-color="#375375" stop-opacity="0.963919"/>
<stop offset="0.850962" stop-color="#142F57"/>
</linearGradient>
<linearGradient id="paint22_linear_494_2" x1="559.054" y1="1063" x2="672.729" y2="372.002" gradientUnits="userSpaceOnUse">
<stop stop-color="white" stop-opacity="0.8"/>
<stop offset="0.105769" stop-color="#ECF4F7" stop-opacity="0.809766"/>
<stop offset="0.317308" stop-color="#B1D1DD" stop-opacity="0.840285"/>
<stop offset="0.504808" stop-color="#6C8AA2" stop-opacity="0.910345"/>
<stop offset="0.677885" stop-color="#375375" stop-opacity="0.963919"/>
<stop offset="0.850962" stop-color="#142F57"/>
</linearGradient>
<linearGradient id="paint23_linear_494_2" x1="559.054" y1="1063" x2="672.729" y2="372.002" gradientUnits="userSpaceOnUse">
<stop stop-color="white" stop-opacity="0.8"/>
<stop offset="0.105769" stop-color="#ECF4F7" stop-opacity="0.809766"/>
<stop offset="0.317308" stop-color="#B1D1DD" stop-opacity="0.840285"/>
<stop offset="0.504808" stop-color="#6C8AA2" stop-opacity="0.910345"/>
<stop offset="0.677885" stop-color="#375375" stop-opacity="0.963919"/>
<stop offset="0.850962" stop-color="#142F57"/>
</linearGradient>
<linearGradient id="paint24_linear_494_2" x1="559.054" y1="1063" x2="672.729" y2="372.002" gradientUnits="userSpaceOnUse">
<stop stop-color="white" stop-opacity="0.8"/>
<stop offset="0.105769" stop-color="#ECF4F7" stop-opacity="0.809766"/>
<stop offset="0.317308" stop-color="#B1D1DD" stop-opacity="0.840285"/>
<stop offset="0.504808" stop-color="#6C8AA2" stop-opacity="0.910345"/>
<stop offset="0.677885" stop-color="#375375" stop-opacity="0.963919"/>
<stop offset="0.850962" stop-color="#142F57"/>
</linearGradient>
<linearGradient id="paint25_linear_494_2" x1="559.054" y1="1063" x2="672.729" y2="372.002" gradientUnits="userSpaceOnUse">
<stop stop-color="white" stop-opacity="0.8"/>
<stop offset="0.105769" stop-color="#ECF4F7" stop-opacity="0.809766"/>
<stop offset="0.317308" stop-color="#B1D1DD" stop-opacity="0.840285"/>
<stop offset="0.504808" stop-color="#6C8AA2" stop-opacity="0.910345"/>
<stop offset="0.677885" stop-color="#375375" stop-opacity="0.963919"/>
<stop offset="0.850962" stop-color="#142F57"/>
</linearGradient>
<linearGradient id="paint26_linear_494_2" x1="559.054" y1="1063" x2="672.729" y2="372.002" gradientUnits="userSpaceOnUse">
<stop stop-color="white" stop-opacity="0.8"/>
<stop offset="0.105769" stop-color="#ECF4F7" stop-opacity="0.809766"/>
<stop offset="0.317308" stop-color="#B1D1DD" stop-opacity="0.840285"/>
<stop offset="0.504808" stop-color="#6C8AA2" stop-opacity="0.910345"/>
<stop offset="0.677885" stop-color="#375375" stop-opacity="0.963919"/>
<stop offset="0.850962" stop-color="#142F57"/>
</linearGradient>
<linearGradient id="paint27_linear_494_2" x1="559.054" y1="1063" x2="672.729" y2="372.002" gradientUnits="userSpaceOnUse">
<stop stop-color="white" stop-opacity="0.8"/>
<stop offset="0.105769" stop-color="#ECF4F7" stop-opacity="0.809766"/>
<stop offset="0.317308" stop-color="#B1D1DD" stop-opacity="0.840285"/>
<stop offset="0.504808" stop-color="#6C8AA2" stop-opacity="0.910345"/>
<stop offset="0.677885" stop-color="#375375" stop-opacity="0.963919"/>
<stop offset="0.850962" stop-color="#142F57"/>
</linearGradient>
</defs>
</svg>
