<svg width="1440" height="1113" viewBox="0 0 1440 1113" fill="none" xmlns="http://www.w3.org/2000/svg">
<path d="M1188 972.39L1147.28 930.042L1109.95 929.082L1081.19 924.324L1045.38 930.647C1045.38 930.647 1026.1 940.134 1021.89 951.713C1018.51 961.025 1019.96 967.609 1022.93 977.061C1025.57 985.469 1028.87 989.655 1034.49 996.44C1046.47 1010.89 1057.97 1014.9 1075.59 1021.39C1092.84 1027.74 1103.65 1029.16 1122.04 1029.07C1139.03 1028.99 1149.69 1029.51 1165 1022.12C1177.22 1016.22 1192.02 1000.29 1192.02 1000.29L1188 972.39Z" fill="white" fill-opacity="0.7"/>
<path d="M1147.28 930.042L1188 972.39L1235.39 968.89L1245.99 958.413L1275.87 928.862L1254.61 906.29L1235.14 903.07L1215.68 899.849L1181.64 884.464L1146.91 878.718L1147.21 920.034L1147.28 930.042Z" fill="white" fill-opacity="0.7"/>
<path d="M1235.39 968.89L1188 972.39L1192.02 1000.29L1195.3 1023.05C1195.3 1023.05 1207.99 1046.97 1220.59 1058.31C1232.38 1068.9 1240.25 1074.91 1255.6 1078.84C1270.07 1082.55 1280.75 1085.54 1293.86 1078.37C1297.6 1076.32 1299.93 1075.17 1302.66 1071.88C1310.53 1062.39 1300.14 1040.39 1300.14 1040.39L1291.01 1021.42L1251.05 989.627L1235.39 968.89Z" fill="white" fill-opacity="0.7"/>
<path d="M1251.05 989.627L1291.01 1021.42L1338.63 1023.4L1388.89 1017.65L1408.36 1005.75L1426.5 1000.51L1415.42 986.445L1383.34 981.139L1347.21 971.514L1320.52 963.921L1245.99 958.413L1235.39 968.89L1251.05 989.627Z" fill="white" fill-opacity="0.7"/>
<path d="M1291.01 1021.42L1300.14 1040.39C1300.14 1040.39 1314.41 1052.15 1325.19 1056.56C1338.24 1061.9 1346.71 1062.19 1360.8 1062.45C1376.22 1062.73 1386.52 1064.56 1399.9 1056.9C1406.03 1053.38 1410.04 1051.32 1413.85 1045.37C1418.74 1037.71 1417.65 1022.41 1417.65 1022.41L1408.36 1005.75L1388.89 1017.65L1338.63 1023.4L1291.01 1021.42Z" fill="white" fill-opacity="0.7"/>
<path d="M1245.99 958.413L1320.52 963.921L1347.21 971.514L1391.27 956.574L1438.66 926.989L1480.74 881.101L1427.5 913.428L1420.98 890.38L1375.23 901.07L1355.58 922.996L1327.94 945.188L1301.89 955.623L1245.99 958.413Z" fill="white" fill-opacity="0.7"/>
<path d="M1254.61 906.29L1275.87 928.862L1245.99 958.413L1301.89 955.623L1327.94 945.188L1355.58 922.996L1375.23 901.07L1377.9 884.953L1364.64 866.201L1316.98 864.44L1295.78 869.665L1274.58 874.889L1247.77 894.045L1235.14 903.07L1254.61 906.29Z" fill="white" fill-opacity="0.7"/>
<path d="M1316.98 864.44L1364.64 866.201L1377.9 884.953L1375.23 901.07L1416.81 862.268L1422.5 827.826L1460.83 792.974L1409.43 803.055L1426.22 745.359L1387.19 828.765L1369.02 791.62L1332.98 841.909L1295.78 869.665L1316.98 864.44Z" fill="white" fill-opacity="0.7"/>
<path d="M1274.58 874.889L1295.78 869.665L1332.98 841.909L1339.12 804.818L1318.57 791.892L1294.96 813.505L1274.04 788.834L1268.75 820.848L1248.44 822.705L1218.21 841.974L1231.7 844.206L1263.01 855.51L1265.06 873.316L1247.77 894.045L1274.58 874.889Z" fill="white" fill-opacity="0.7"/>
<path d="M1181.64 884.464L1215.68 899.849L1235.14 903.07L1247.77 894.045L1265.06 873.316L1214.41 864.935L1177.41 841.348L1181.64 884.464Z" fill="white" fill-opacity="0.7"/>
<path d="M1146.91 878.718L1181.64 884.464L1177.41 841.348L1214.41 864.935L1265.06 873.316L1263.01 855.51L1231.7 844.206L1218.21 841.974L1193.36 813.593L1198 785.594L1169.4 785.948L1180.76 760.47L1161.19 751.244L1130.31 774.395L1138.53 793.406L1148.79 826.178L1149.4 863.705L1146.91 878.718Z" fill="white" fill-opacity="0.7"/>
<path d="M1138.53 793.406L1130.31 774.395L1153.88 704.256L1126.01 716.601L1094.02 694.352L1075.79 721.855L1053.52 733.431L1079.25 783.598L1102.01 798.478L1126.86 826.86L1149.4 863.705L1148.79 826.178L1138.53 793.406Z" fill="white" fill-opacity="0.7"/>
<path d="M1146.91 878.718L1149.4 863.705L1126.86 826.86L1102.01 798.478L1079.25 783.598L1055.58 779.682L1055.86 815.112L1063.72 845.9L1087.18 888.116L1107.93 909.694L1147.21 920.034L1146.91 878.718Z" fill="white" fill-opacity="0.7"/>
<path d="M1109.95 929.082L1147.28 930.042L1147.21 920.034L1107.93 909.694L1087.18 888.116L1063.72 845.9L1055.86 815.112L1016.22 808.554L958.184 745.916L999.834 842.67L1015.2 876.206L1049.8 903.917L1081.19 924.324L1109.95 929.082Z" fill="white" fill-opacity="0.7"/>
<path d="M1171.18 894.744L1147.56 840.957L1112.84 827.186L1087.49 812.809L1051.69 806.399C1051.69 806.399 1030.33 808.66 1022.39 818.079C1016 825.655 1015.09 832.334 1014.62 842.23C1014.2 851.033 1015.85 856.1 1018.8 864.408C1025.06 882.104 1034.47 889.828 1048.77 901.989C1062.78 913.9 1072.44 918.958 1089.73 925.215C1105.71 930.999 1115.54 935.157 1132.45 933.495C1145.95 932.17 1165.34 922.318 1165.34 922.318L1171.18 894.744Z" fill="white" fill-opacity="0.7"/>
<path d="M1147.56 840.957L1171.18 894.744L1216.88 907.794L1230.43 901.612L1268.68 884.173L1256.5 855.656L1239.33 845.924L1222.17 836.191L1195.52 810.015L1164.9 792.651L1150.94 831.538L1147.56 840.957Z" fill="white" fill-opacity="0.7"/>
<path d="M1216.88 907.794L1171.18 894.744L1165.34 922.318L1160.57 944.811C1160.57 944.811 1164.24 971.65 1172.17 986.632C1179.58 1000.64 1184.89 1008.99 1197.95 1017.98C1210.26 1026.45 1219.25 1032.93 1234.03 1030.72C1238.25 1030.08 1240.83 1029.81 1244.52 1027.66C1255.18 1021.46 1253.01 997.234 1253.01 997.234L1250.98 976.273L1224.43 932.657L1216.88 907.794Z" fill="white" fill-opacity="0.7"/>
<path d="M1224.43 932.657L1250.98 976.273L1295 994.548L1344.16 1006.48L1366.54 1002.02L1385.37 1003.35L1379.82 986.328L1351.54 970.292L1320.94 948.803L1298.5 932.474L1230.43 901.612L1216.88 907.794L1224.43 932.657Z" fill="white" fill-opacity="0.7"/>
<path d="M1250.98 976.273L1253.01 997.234C1253.01 997.234 1262.36 1013.19 1270.95 1021.04C1281.36 1030.55 1289.21 1033.75 1302.35 1038.85C1316.73 1044.43 1325.76 1049.69 1340.97 1047.11C1347.93 1045.93 1352.41 1045.38 1358.04 1041.1C1365.27 1035.6 1369.52 1020.86 1369.52 1020.86L1366.54 1002.02L1344.16 1006.48L1295 994.548L1250.98 976.273Z" fill="white" fill-opacity="0.7"/>
<path d="M1230.43 901.612L1298.5 932.474L1320.94 948.803L1367.45 949.965L1422.13 938.528L1477.45 909.958L1416.33 921.95L1418.16 898.07L1371.52 892.333L1345.52 906.143L1311.92 917.445L1283.88 918.264L1230.43 901.612Z" fill="white" fill-opacity="0.7"/>
<path d="M1256.5 855.656L1268.68 884.173L1230.43 901.612L1283.88 918.264L1311.92 917.445L1345.52 906.143L1371.52 892.333L1379.58 878.123L1373.6 855.95L1329.47 837.87L1307.77 835.466L1286.06 833.062L1254.3 841.804L1239.33 845.924L1256.5 855.656Z" fill="white" fill-opacity="0.7"/>
<path d="M1329.47 837.87L1373.6 855.95L1379.58 878.123L1371.52 892.333L1423.93 870.24L1441.15 839.873L1489.14 820.369L1437.41 812.114L1473.06 763.74L1407.68 828.583L1403.43 787.452L1352.26 822.235L1307.77 835.466L1329.47 837.87Z" fill="white" fill-opacity="0.7"/>
<path d="M1286.06 833.062L1307.77 835.466L1352.26 822.235L1370.8 789.532L1355.97 770.316L1326.35 782.465L1315.23 752.097L1299.22 780.323L1279.52 775.067L1244.5 782.735L1256.39 789.481L1281.89 810.884L1277.68 828.306L1254.3 841.804L1286.06 833.062Z" fill="white" fill-opacity="0.7"/>
<path d="M1195.52 810.015L1222.17 836.191L1239.33 845.924L1254.3 841.804L1277.68 828.306L1233.02 802.98L1206.41 768.083L1195.52 810.015Z" fill="white" fill-opacity="0.7"/>
<path d="M1164.9 792.651L1195.52 810.015L1206.41 768.083L1233.02 802.98L1277.68 828.306L1281.89 810.884L1256.39 789.481L1244.5 782.735L1230.96 747.529L1244.96 722.843L1217.99 713.316L1237.43 693.316L1222.24 677.91L1185.28 689L1186.44 709.678L1184.77 743.977L1172.41 779.414L1164.9 792.651Z" fill="white" fill-opacity="0.7"/>
<path d="M1186.44 709.678L1185.28 689L1231.58 631.282L1201.17 633.266L1178.8 601.351L1152.21 620.884L1127.32 624.076L1134.18 680.038L1150.42 701.852L1163.96 737.059L1172.41 779.414L1184.77 743.977L1186.44 709.678Z" fill="white" fill-opacity="0.7"/>
<path d="M1164.9 792.651L1172.41 779.414L1163.96 737.059L1150.42 701.852L1134.18 680.038L1113.31 668.204L1101.35 701.557L1098.12 733.167L1105.6 780.885L1117.63 808.291L1150.94 831.538L1164.9 792.651Z" fill="white" fill-opacity="0.7"/>
<path d="M1112.84 827.186L1147.56 840.957L1150.94 831.538L1117.63 808.291L1105.6 780.885L1098.12 733.167L1101.35 701.557L1066.41 681.737L1033.52 602.934L1039.26 708.115L1042.13 744.893L1065.06 782.832L1087.49 812.809L1112.84 827.186Z" fill="white" fill-opacity="0.7"/>
<path d="M895 951.5C1061 944.167 1362.5 815.9 1240.5 361.5L1262 347C1310.17 522.667 1319.1 894.3 969.5 975.5L895 951.5Z" fill="white" fill-opacity="0.2"/>
<path d="M1156.5 509.5C1191 547.833 1242.2 677.5 1171 889.5" stroke="#CAB8FF" stroke-width="4"/>
<path d="M330.06 103.97L330.78 98.75L331.14 98.81L330.57 103.1C330.78 103.34 331.17 103.58 331.65 103.58C333.66 103.58 334.23 101.36 334.59 99.74C335.31 96.59 335.46 93.17 335.46 89.93H333V89.57H344.85V89.93H342.48V103.64H344.85V104H338.07V103.64H340.44V89.93H335.88C335.79 93.32 335.79 96.8 334.89 100.28C334.05 103.43 332.82 104.27 331.32 104.27C330.84 104.27 330.39 104.09 330.06 103.97ZM353.572 104.33C349.522 104.33 346.552 101.39 346.552 96.8C346.552 91.73 349.522 89.21 353.572 89.21C357.592 89.21 360.592 91.52 360.592 96.8C360.592 101.33 357.592 104.33 353.572 104.33ZM353.572 103.97C355.912 103.97 358.222 102.32 358.222 96.8C358.222 91.25 355.912 89.57 353.572 89.57C351.202 89.57 348.922 91.25 348.922 96.8C348.922 102.32 351.202 103.97 353.572 103.97ZM362.297 104V103.64H364.667V89.93H362.297V89.57H371.387V89.21H371.807L371.957 97.22H371.597L371.417 90.5C370.457 90.11 368.987 89.93 367.337 89.93H366.707V103.64H369.377V104H362.297ZM381.492 104.33C377.442 104.33 374.472 101.39 374.472 96.8C374.472 91.73 377.442 89.21 381.492 89.21C385.512 89.21 388.512 91.52 388.512 96.8C388.512 101.33 385.512 104.33 381.492 104.33ZM381.492 103.97C383.832 103.97 386.142 102.32 386.142 96.8C386.142 91.25 383.832 89.57 381.492 89.57C379.122 89.57 376.842 91.25 376.842 96.8C376.842 102.32 379.122 103.97 381.492 103.97Z" fill="black"/>
<path d="M1323.95 683.357L1309.86 677.099L1305.66 667.868C1305.66 667.868 1288.89 666.958 1278.81 663.629C1268.74 660.3 1259.39 654.468 1251.7 648.658C1244 642.849 1239.81 639.192 1233.8 631.651C1227.79 624.111 1217.6 600.06 1217.6 600.06L1243.16 620.25L1264.19 634.874L1277.91 644.486L1310.7 653.712L1279.12 640.192L1259.71 626.142L1243.35 604.821L1238.33 585.261L1236.78 570.884L1249.74 582.11L1243.23 563L1247.94 564.677L1248.12 550.488L1254.26 566.928L1263.75 560.241L1263.66 594.99L1278.1 600.03L1289.78 610.26L1285.63 588.274L1295.87 580.665L1305.06 555.941L1308.86 579.227L1313.78 550.465L1327.58 582.854L1323.09 598.816L1338.37 616.013L1363.25 605.283L1372.9 590.956L1400.65 563.752L1391.52 596.196L1405.48 576.271L1403.68 611.001L1411.43 620.488L1407.09 635.921L1430.08 632.858L1458.82 609.78L1452.98 630.534L1467.77 615.55L1461.7 637.132L1474.81 645.446L1471.59 654.479L1463.47 655.994L1433.31 659.987C1433.31 659.987 1443.41 664.87 1450.4 665.569C1457.38 666.268 1483.76 653.949 1483.76 653.949L1469.91 670.286C1469.91 670.286 1455.74 678.126 1445.95 681.355C1436.17 684.585 1429.54 686.634 1418.68 686.838C1407.82 687.041 1397.3 681.287 1390.63 682.167C1383.95 683.048 1380.89 686.58 1374.21 687.411C1367.53 688.242 1354.94 680.173 1350.55 683.815C1346.15 687.457 1340.59 695.708 1340.59 695.708L1331.5 693.15L1332.22 685.682L1323.95 683.357Z" fill="#CAB8FF"/>
<path d="M184.539 375.6L173.984 381.239L166.331 379.405C166.331 379.405 157.775 389.229 150.929 393.807C144.084 398.385 136.058 401.318 128.831 403.256C121.604 405.193 117.365 406.014 109.883 406.094C102.402 406.173 82.8252 400.93 82.8252 400.93L107.376 394.923L126.355 389.037L138.787 385.224L160.074 369.566L136.736 382.435L118.878 387.607L98.0238 387.447L83.6633 381.182L74.1254 375.272L87.1772 372.7L72.377 367.567L75.6501 365.485L67.0558 358.603L80.0455 362.69L80.4818 353.693L101.702 370.327L111.675 363.897L123.506 361.633L108.073 353.682L108.305 343.782L97.5631 326.363L113.623 335.149L98.3711 318.417L124.776 325.424L132.399 335.789L150.212 334.647L155.517 314.304L151.355 301.564L147.949 271.605L163.445 292.671L157.916 274.62L178.306 292.295L187.812 292.075L195.183 302.097L204.276 286.571L203.869 257.973L213.781 271.449L211.672 255.249L221.979 269.262L233.322 265.207L237.315 271.485L234.367 277.176L222.417 297.538C222.417 297.538 230.226 293.687 233.986 289.746C237.747 285.806 242.796 263.788 242.796 263.788L246.182 280.058C246.182 280.058 244.219 292.468 241.526 299.997C238.832 307.526 236.926 312.557 231.868 319.3C226.81 326.043 218.27 329.733 215.624 334.237C212.978 338.741 213.676 342.303 210.997 346.787C208.317 351.271 197.377 355.12 197.508 359.547C197.639 363.975 200.031 371.317 200.031 371.317L194.131 375.657L189.904 371.654L184.539 375.6Z" fill="#CAB8FF"/>
<path d="M1144.2 511.179L1132.98 515.343L1125.64 512.493C1125.64 512.493 1115.84 521.073 1108.44 524.685C1101.04 528.297 1092.69 530.121 1085.27 531.065C1077.85 532.009 1073.54 532.252 1066.11 531.321C1058.69 530.39 1040 522.553 1040 522.553L1065.13 519.914L1084.73 516.643L1097.57 514.542L1120.77 501.9L1095.91 511.502L1077.52 514.217L1056.88 511.244L1043.49 503.1L1034.84 495.957L1048.12 495.169L1034.15 488.086L1037.67 486.465L1030.08 478.486L1042.4 484.288L1044.05 475.432L1062.83 494.777L1073.58 489.751L1085.61 489.105L1071.39 479.144L1072.96 469.367L1064.66 450.657L1079.39 461.53L1066.53 442.893L1091.75 453.398L1097.91 464.697L1115.71 465.968L1123.71 446.527L1121.31 433.342L1121.98 403.198L1134.49 426.162L1131.44 407.53L1149.26 427.795L1158.71 428.86L1164.66 439.784L1175.77 425.627L1179.22 397.236L1187.23 411.926L1187.32 395.589L1195.64 410.865L1207.43 408.377L1210.54 415.137L1206.85 420.378L1192.26 438.942C1192.26 438.942 1200.52 436.18 1204.78 432.782C1209.04 429.385 1217.01 408.249 1217.01 408.249L1218.17 424.828C1218.17 424.828 1214.55 436.86 1210.87 443.956C1207.18 451.053 1204.61 455.781 1198.69 461.779C1192.77 467.778 1183.81 470.282 1180.58 474.388C1177.35 478.494 1177.56 482.118 1174.3 486.199C1171.04 490.281 1159.68 492.618 1159.22 497.023C1158.75 501.427 1160.13 509.026 1160.13 509.026L1153.7 512.53L1150.05 507.993L1144.2 511.179Z" fill="#CAB8FF"/>
<path d="M347.817 265.032C297.073 407.057 144.71 691.523 468 879.785L460.487 900C188.575 710.287 230.639 557.376 335.799 250L347.817 265.032Z" fill="white" fill-opacity="0.2"/>
<path d="M215.922 666.154C200.401 769.686 237.978 899.127 433.674 896.055L491.977 934.056C389.106 895.945 174.576 917.462 205.382 657.734L215.922 666.154Z" fill="white" fill-opacity="0.2"/>
<path d="M327.494 318.582L425.223 269.465L386.161 309.595L478.059 345.048L412.862 351.515L452.047 366.632L384.911 373.959L412.245 429.521L316.337 347.505L327.494 318.582Z" fill="white" fill-opacity="0.2"/>
<path d="M1276.58 414.753L1357.3 285.626L1348.48 360.099L1419.93 361.65L1366.9 400.123L1408.36 393.408L1340.06 425.353L1405.72 467.787L1281.53 445.354L1276.58 414.753Z" fill="white" fill-opacity="0.2"/>
<path d="M365.152 801.646L343.385 658.674L374.241 740.12L385.044 691.032L414 740.793L493.489 692.069L447.571 749.896L418.376 782.429L490.027 757.708L397.064 831.836L365.152 801.646Z" fill="white" fill-opacity="0.2"/>
<path d="M469.95 209.776L522.273 234.965L556.799 303.68L577.642 310.318L592.481 296.677L597.402 207.073L580.002 177.263L528.788 160.954L564.818 165.213L610.088 136.339L667.132 115.806L667.236 62.8786L672.636 10.2603L627.604 78.362L608.027 54.7296L578.846 58.2798L553.008 79.3993L535.708 52.8228L492.175 98.7899L454.348 137.249L444.772 151.253L429.542 173.952L394.236 194.192L469.95 209.776Z" fill="white" fill-opacity="0.7"/>
<path d="M354.827 276.75L469.95 209.776L394.236 194.192L387.598 215.036L355.513 239.581L354.827 276.75Z" fill="white" fill-opacity="0.7"/>
<path d="M368.788 197.895L334.561 212.176L332.793 269.733L354.827 276.75L355.513 239.581L387.598 215.036L394.236 194.192L368.788 197.895Z" fill="white" fill-opacity="0.7"/>
<path d="M261.601 134.902L248.369 161.415L270.646 234.201L290.545 229.387L334.561 212.176L368.788 197.895L394.236 194.192L372.499 187.27L350.763 180.348L337.828 159.176L315.198 151.969L272.324 123.886L261.601 134.902Z" fill="white" fill-opacity="0.7"/>
<path d="M454.348 137.249L492.175 98.7899L534.911 28.4422L533.28 -14.7309L543.761 -43.6799L517.085 -32.9866L523.345 -75.8126L481.396 -18.2367L438.183 -29.5169L444.145 27.2155L388.652 -0.423816L357.017 21.9754L387.55 -47.8504L324.336 -20.9051L359.056 -58.1677L296.444 -64.1031L272.209 -89.6136L239.467 -95.6484L205.682 -136.987L210.591 -57.1266L269.752 -9.62222L238.999 12.2637L252.014 39.3651L200.799 23.0559L144.874 2.80609L169.212 46.4151L135.636 77.7013L130.705 93.1848L163.542 95.1148L211.866 87.5464L261.601 134.902L272.324 123.886L315.198 151.969L337.828 159.176L350.763 180.348L372.499 187.27L394.236 194.192L429.542 173.952L444.772 151.253L454.348 137.249Z" fill="white" fill-opacity="0.7"/>
<path d="M460.315 198.999L497.483 237.901L505.028 308.753L520.941 321.304L538.257 314.311L571.735 238.202L566.362 206.676L527.26 175.836L557.121 191.275L605.796 180.99L661.964 181.777L679.308 135.907L701.144 92.0318L639.887 136.416L630.612 109.538L604.146 103.105L574.852 112.999L568.511 84.3092L515.771 109.985L470.426 131.01L457.556 140.034L436.947 154.755L399.729 160.801L460.315 198.999Z" fill="white" fill-opacity="0.7"/>
<path d="M338.637 219.556L460.315 198.999L399.729 160.801L387.177 176.714L351.348 187.544L338.637 219.556Z" fill="white" fill-opacity="0.7"/>
<path d="M376.451 155.717L342.11 156.945L321.814 206.288L338.637 219.556L351.348 187.544L387.177 176.714L399.729 160.801L376.451 155.717Z" fill="white" fill-opacity="0.7"/>
<path d="M304.023 66.141L283.904 84.8224L279.497 155.212L298.324 157.523L342.11 156.945L376.451 155.717L399.729 160.801L383.133 147.712L366.537 134.623L362.221 112.043L344.943 98.4157L316.914 60.0829L304.023 66.141Z" fill="white" fill-opacity="0.7"/>
<path d="M470.426 131.01L515.771 109.985L575.768 62.9041L588.427 24.9285L606.955 3.2381L580.333 3.81628L599.722 -31.2861L544.571 4.97446L510.77 -18.8955L497.447 32.2518L458.328 -9.80965L423.589 -0.695182L472.832 -51.3019L409.223 -48.5393L451.483 -69.5388L399.115 -95.0971L386.412 -125.123L359.982 -141.03L344.156 -187.896L322.38 -117.033L358.204 -56.5473L324.398 -47.5905L326.851 -19.8429L287.749 -50.6831L245.847 -86.4766L252.739 -40.7208L213.42 -24.5316L204.096 -12.7101L231.946 -0.331898L276.325 8.85705L304.023 66.141L316.914 60.0829L344.943 98.4157L362.221 112.043L366.537 134.623L383.133 147.712L399.729 160.801L436.947 154.755L457.556 140.034L470.426 131.01Z" fill="white" fill-opacity="0.7"/>
<path d="M1294.4 254.47L1340.48 240.919L1399.77 263.953L1416.25 256.469L1417.79 239.869L1371.13 182.139L1343.92 173.49L1303.44 191.877L1327.92 174.512L1339.69 131.687L1363.32 87.4531L1334.04 54.9079L1308.18 19.6155L1318.3 86.3879L1293.18 82.7372L1277.23 101.097L1273.09 128.387L1247.73 121.667L1246.5 174.021L1244.6 218.603L1246.49 232.508L1249.73 254.886L1239.28 286.887L1294.4 254.47Z" fill="white" fill-opacity="0.7"/>
<path d="M1260.87 359.414L1294.4 254.47L1239.28 286.887L1246.76 303.361L1240.68 336.219L1260.87 359.414Z" fill="white" fill-opacity="0.7"/>
<path d="M1225.71 303.27L1212.62 331.015L1243.45 367.325L1260.87 359.414L1240.68 336.219L1246.76 303.361L1239.28 286.887L1225.71 303.27Z" fill="white" fill-opacity="0.7"/>
<path d="M1124.99 324.038L1131.57 347.649L1185.6 379.974L1195.15 365.986L1212.62 331.015L1225.71 303.27L1239.28 286.887L1222.1 294.691L1204.92 302.495L1185.24 296.671L1167.35 304.796L1125.46 311.331L1124.99 324.038Z" fill="white" fill-opacity="0.7"/>
<path d="M1244.6 218.603L1246.5 174.021L1233.72 107.144L1208.78 81.5477L1199.16 57.9662L1188.72 79.3215L1168.81 49.5635L1174.99 108.165L1142.21 125.202L1177.33 156.72L1127.94 170.524L1120.94 201.815L1100.97 142.024L1077.1 193.616L1077.75 151.491L1036.03 182.566L1007.01 180.345L983.566 194.796L939.906 188.154L987.201 234.452L1049.86 230.808L1043.12 261.293L1066.13 270.712L1025.65 289.099L980.095 307.68L1019.21 320.953L1015.95 358.774L1021.51 371.012L1042.74 353.989L1068.2 322.548L1124.99 324.038L1125.46 311.331L1167.35 304.796L1185.24 296.671L1204.92 302.495L1222.1 294.691L1239.28 286.887L1249.73 254.886L1246.49 232.508L1244.6 218.603Z" fill="white" fill-opacity="0.7"/>
<path d="M1290.75 253.965L1335.87 259.999L1378.33 302.802L1395.48 302.675L1403.21 288.898L1385.07 220.924L1364.84 202.945L1322.71 203.258L1350.6 197.661L1377.3 165.123L1414.82 135.934L1402.01 96.4662L1393.22 55.939L1376.24 117.653L1355.9 104.807L1335.02 114.556L1320.9 136.585L1301.54 120.991L1280.29 165.844L1261.46 203.713L1257.74 216.481L1251.91 237.104L1230.53 260.782L1290.75 253.965Z" fill="white" fill-opacity="0.7"/>
<path d="M1221.26 331.9L1290.75 253.965L1230.53 260.782L1230.65 277.931L1212.72 304.034L1221.26 331.9Z" fill="white" fill-opacity="0.7"/>
<path d="M1212.46 269.736L1190.43 288.711L1203.13 332.035L1221.26 331.9L1212.72 304.034L1230.65 277.931L1230.53 260.782L1212.46 269.736Z" fill="white" fill-opacity="0.7"/>
<path d="M1117.25 248.885L1113.84 271.864L1148.16 320.683L1161.82 312.252L1190.43 288.711L1212.46 269.736L1230.53 260.782L1212.64 260.915L1194.76 261.048L1179.97 248.418L1161.35 248.557L1122.56 238.065L1117.25 248.885Z" fill="white" fill-opacity="0.7"/>
<path d="M1261.46 203.713L1280.29 165.844L1295.01 103.016L1283.29 71.2389L1284.05 47.1137L1266.78 61.5764L1261.01 28.1377L1243.77 81.2566L1208.82 83.3696L1227.07 124.197L1178.99 117.108L1160.87 141.502L1166.62 82.0328L1126.07 117.502L1142.88 81.2805L1094.77 92.099L1070.5 78.9875L1044.63 82.4607L1009.39 59.8781L1032.49 118.197L1088.14 139.198L1070.55 162.994L1086.85 180.022L1044.71 180.335L998.106 178.859L1026.86 205.433L1009.45 236.922L1009.55 249.661L1034.49 243.105L1068.66 225.702L1117.25 248.885L1122.56 238.065L1161.35 248.557L1179.97 248.418L1194.76 261.048L1212.64 260.915L1230.53 260.782L1251.91 237.104L1257.74 216.481L1261.46 203.713Z" fill="white" fill-opacity="0.7"/>
<path d="M183.904 671.909L132.157 672.548L108.88 695.914L88.3876 711.492L70.683 738.262C70.683 738.262 65.0367 756.33 69.8748 765.991C73.7657 773.761 78.8466 776.792 86.6822 780.574C93.6518 783.939 98.3269 784.34 106.072 784.814C122.571 785.823 132.106 780.861 146.941 773.464C161.47 766.22 168.938 760.141 180.044 748.299C190.311 737.351 197.111 730.824 201.685 716.564C205.335 705.183 204.152 686.11 204.152 686.11L183.904 671.909Z" fill="white" fill-opacity="0.7"/>
<path d="M132.157 672.548L183.904 671.909L210.438 639.412L210.183 626.316L209.461 589.377L182.147 589.437L168.275 599.982L154.404 610.528L123.919 623.104L99.1706 641.918L125.725 666.575L132.157 672.548Z" fill="white" fill-opacity="0.7"/>
<path d="M210.438 639.412L183.904 671.909L204.152 686.11L220.67 697.695C220.67 697.695 243.651 703.945 258.535 702.679C272.453 701.495 281.062 700.061 292.893 692.581C304.046 685.53 312.433 680.48 315.813 667.762C316.778 664.129 317.46 661.944 317.016 658.221C315.732 647.458 295.386 640.894 295.386 640.894L277.73 635.336L233.18 641.843L210.438 639.412Z" fill="white" fill-opacity="0.7"/>
<path d="M233.18 641.843L277.73 635.336L307.902 605.99L334.745 570.301L338.968 550.662L346.631 535.876L330.927 534.523L308.071 551.899L279.995 569.28L258.944 581.832L210.183 626.316L210.438 639.412L233.18 641.843Z" fill="white" fill-opacity="0.7"/>
<path d="M277.73 635.336L295.386 640.894C295.386 640.894 311.556 638.812 320.911 634.553C332.238 629.397 337.569 624.143 346.29 615.26C355.83 605.542 363.247 600.039 366.478 586.849C367.958 580.803 369.078 576.991 367.588 570.969C365.672 563.223 355.237 554.722 355.237 554.722L338.968 550.662L334.745 570.301L307.902 605.99L277.73 635.336Z" fill="white" fill-opacity="0.7"/>
<path d="M210.183 626.316L258.944 581.832L279.995 569.28L297.203 532.041L307.085 483.857L303.339 429.272L291.652 482.86L272.987 473.175L252.036 508.945L254.105 534.733L251.488 565.809L242.341 588.785L210.183 626.316Z" fill="white" fill-opacity="0.7"/>
<path d="M182.147 589.437L209.461 589.377L210.183 626.316L242.341 588.785L251.488 565.809L254.105 534.733L252.036 508.945L243.367 497.541L223.348 494.766L193.294 524.268L183.759 541.008L174.223 557.747L170.18 586.456L168.275 599.982L182.147 589.437Z" fill="white" fill-opacity="0.7"/>
<path d="M193.294 524.268L223.348 494.766L243.367 497.541L252.036 508.945L252.505 458.946L233.979 434.577L235 389.036L210.231 428.063L183.593 382.597L213.144 457.786L178.404 447.097L188.624 500.458L183.759 541.008L193.294 524.268Z" fill="white" fill-opacity="0.7"/>
<path d="M174.223 557.747L183.759 541.008L188.624 500.458L168.673 474.214L147.951 479.615L147.412 507.757L118.968 506.331L136.188 528.982L125.048 543.121L118.997 574.096L128.612 566.786L154.833 553.508L167.445 562.9L170.18 586.456L174.223 557.747Z" fill="white" fill-opacity="0.7"/>
<path d="M123.919 623.104L154.404 610.528L168.275 599.982L170.18 586.456L167.445 562.9L131.347 590.342L93.8296 599.883L123.919 623.104Z" fill="white" fill-opacity="0.7"/>
<path d="M99.1706 641.918L123.919 623.104L93.8296 599.883L131.347 590.342L167.445 562.9L154.833 553.508L128.612 566.786L118.997 574.096L85.7978 572.959L70.7375 553.149L53.6014 571.703L44.2342 549.095L26.4655 556.096L22.5026 589.818L39.6253 595.982L66.7715 609.115L91.0952 631.295L99.1706 641.918Z" fill="white" fill-opacity="0.7"/>
<path d="M39.6253 595.982L22.5026 589.818L-7.964 532.521L-16.9989 557.815L-50.6239 564.952L-44.1359 593.186L-50.2625 614.426L-2.61958 628.097L20.6964 622.45L53.8953 623.587L91.0952 631.295L66.7715 609.115L39.6253 595.982Z" fill="white" fill-opacity="0.7"/>
<path d="M99.1706 641.918L91.0952 631.295L53.8953 623.587L20.6964 622.45L-2.61958 628.097L-19.486 640.92L3.29599 662.053L27.7193 675.531L68.9116 685.873L95.2785 685.548L125.725 666.575L99.1706 641.918Z" fill="white" fill-opacity="0.7"/>
<path d="M108.88 695.914L132.157 672.548L125.725 666.575L95.2785 685.548L68.9116 685.873L27.7193 675.531L3.29599 662.053L-24.9531 683.529L-100.166 683.072L-13.1221 714.555L17.6131 724.871L56.3051 719.349L88.3876 711.492L108.88 695.914Z" fill="white" fill-opacity="0.7"/>
<path d="M166.053 644.745L123.687 634.02L99.613 648.028L79.505 656.287L59.2393 674.285C59.2393 674.285 50.7049 687.802 52.5533 696.737C54.0398 703.923 57.5271 707.501 63.0993 712.29C68.0557 716.55 71.7835 717.894 78.0012 719.964C91.2449 724.373 100.105 722.397 113.819 719.584C127.249 716.83 134.664 713.493 146.301 706.243C157.058 699.541 164.026 695.692 170.858 685.05C176.31 676.556 179.49 660.734 179.49 660.734L166.053 644.745Z" fill="white" fill-opacity="0.7"/>
<path d="M123.687 634.02L166.053 644.745L194.769 623.993L197.407 613.25L204.846 582.95L182.543 577.062L168.932 582.653L155.32 588.244L127.71 591.881L103.425 601.855L119.736 627.748L123.687 634.02Z" fill="white" fill-opacity="0.7"/>
<path d="M194.769 623.993L166.053 644.745L179.49 660.734L190.451 673.777C190.451 673.777 207.846 683.872 220.267 686.074C231.883 688.133 239.219 688.834 250.5 685.301C261.134 681.971 269.075 679.673 274.597 670.029C276.175 667.274 277.206 665.639 277.653 662.504C278.944 653.443 263.768 643.664 263.768 643.664L250.568 635.292L212.798 630.919L194.769 623.993Z" fill="white" fill-opacity="0.7"/>
<path d="M212.798 630.919L250.568 635.292L281.568 617.901L311.229 594.611L318.943 579.504L328.41 569.103L315.889 564.586L293.461 573.798L266.772 581.879L246.865 587.547L197.407 613.25L194.769 623.993L212.798 630.919Z" fill="white" fill-opacity="0.7"/>
<path d="M250.568 635.292L263.768 643.664C263.768 643.664 277.415 645.48 285.976 644.038C296.339 642.291 301.832 639.163 310.878 633.809C320.776 627.953 328.024 625.074 333.527 615.012C336.05 610.4 337.791 607.533 337.885 602.294C338.005 595.557 331.337 586.353 331.337 586.353L318.943 579.504L311.229 594.611L281.568 617.901L250.568 635.292Z" fill="white" fill-opacity="0.7"/>
<path d="M197.407 613.25L246.865 587.547L266.772 581.879L288.908 555.231L307.444 518.058L316.251 472.7L295.067 513.891L281.94 501.93L257.069 526.567L253.153 548.061L244.264 572.851L231.806 589.612L197.407 613.25Z" fill="white" fill-opacity="0.7"/>
<path d="M182.543 577.062L204.846 582.95L197.407 613.25L231.806 589.612L244.264 572.851L253.153 548.061L257.069 526.567L252.473 515.377L236.741 508.761L205.804 526.305L194.384 537.892L182.964 549.48L173.426 572.029L168.932 582.653L182.543 577.062Z" fill="white" fill-opacity="0.7"/>
<path d="M205.804 526.305L236.741 508.761L252.473 515.377L257.069 526.567L268.319 485.868L258.498 461.955L269.228 425.013L240.533 451.479L228.677 408.587L236.451 476.367L210.424 460.094L207.168 505.859L194.384 537.892L205.804 526.305Z" fill="white" fill-opacity="0.7"/>
<path d="M182.964 549.48L194.384 537.892L207.168 505.859L196.591 480.107L178.506 480.011L171.95 502.859L149.049 495.514L158.178 517.74L146.014 526.857L134.344 550.818L143.78 546.943L168.062 541.806L176.313 552.212L173.426 572.029L182.964 549.48Z" fill="white" fill-opacity="0.7"/>
<path d="M127.71 591.881L155.32 588.244L168.932 582.653L173.426 572.029L176.313 552.212L140.892 566.76L108.203 566.393L127.71 591.881Z" fill="white" fill-opacity="0.7"/>
<path d="M103.425 601.855L127.71 591.881L108.203 566.393L140.892 566.76L176.313 552.212L168.062 541.806L143.78 546.943L134.344 550.818L107.5 542.676L99.5155 523.236L81.4992 534.654L78.7687 514.169L62.7473 516.02L52.1844 542.677L64.8175 551.428L84.1156 568.045L99.1442 591.431L103.425 601.855Z" fill="white" fill-opacity="0.7"/>
<path d="M64.8175 551.428L52.1844 542.677L39.775 489.299L26.9049 507.976L-2.08561 506.492L-2.92731 530.942L-12.5432 546.944L23.3641 568.454L43.6182 568.914L70.4629 577.056L99.1442 591.431L84.1156 568.045L64.8175 551.428Z" fill="white" fill-opacity="0.7"/>
<path d="M103.425 601.855L99.1442 591.431L70.4629 577.056L43.6182 568.914L23.3641 568.454L6.81369 575.252L20.8116 597.45L37.8129 613.756L69.1797 631.148L90.7669 636.613L119.736 627.748L103.425 601.855Z" fill="white" fill-opacity="0.7"/>
<path d="M99.613 648.028L123.687 634.02L119.736 627.748L90.7669 636.613L69.1797 631.148L37.8129 613.756L20.8116 597.45L-6.90816 608.835L-68.1854 592.116L-3.99669 636.725L18.8424 651.823L51.6168 655.726L79.505 656.287L99.613 648.028Z" fill="white" fill-opacity="0.7"/>
<path d="M253.16 845.41L339.532 820.486L380.587 851.598L294.007 866.367L253.253 896.891L253.16 845.41Z" fill="white" fill-opacity="0.7"/>
<path d="M177.347 920.671L26.2399 925.512L-28.0002 857.569L119.29 869.419L198.269 836.453L177.347 920.671Z" fill="white" fill-opacity="0.7"/>
<path d="M141.892 843.212L196.572 785.143L276.414 817.489L234.934 837.509L235.283 874.433L206.144 818.153L141.892 843.212Z" fill="white" fill-opacity="0.7"/>
<path d="M205.991 841.2L193.331 918.453L266.158 961.404L257.028 917.13L286.02 895.383L224.772 906.23L205.991 841.2Z" fill="white" fill-opacity="0.7"/>
<path d="M467.967 730.774L491.058 845.132L384.953 913.091L396.122 846.654L351.753 815.857L443.563 828.652L467.967 730.774Z" fill="white" fill-opacity="0.7"/>
<path d="M87.0613 746.997L35.1678 849.408L120.967 856.685L87.0613 746.997Z" fill="white" fill-opacity="0.7"/>
<path d="M131.486 843.694L175.102 767.318L101.356 761.064L131.486 843.694Z" fill="white" fill-opacity="0.7"/>
<path d="M387.715 918.884L472.261 943.122L460.83 870L387.715 918.884Z" fill="white" fill-opacity="0.7"/>
<path d="M474.441 913.339L467.451 868.041L504.506 878.743L474.441 913.339Z" fill="white" fill-opacity="0.7"/>
<path d="M300.442 886.211L371.967 937.394L385.715 864.671L300.442 886.211Z" fill="white" fill-opacity="0.7"/>
<path d="M773.16 845.41L859.532 820.486L900.587 851.598L814.007 866.367L773.253 896.891L773.16 845.41Z" fill="white" fill-opacity="0.7"/>
<path d="M545.743 852.819L583.908 771.427L559.622 726L531.453 809.191L494.914 844.651L545.743 852.819Z" fill="white" fill-opacity="0.7"/>
<path d="M24.7431 842.819L62.9078 761.427L38.6224 716L10.4534 799.191L-26.0857 834.651L24.7431 842.819Z" fill="white" fill-opacity="0.7"/>
<path d="M697.347 920.671L546.24 925.512L492 857.569L639.29 869.419L718.269 836.453L697.347 920.671Z" fill="white" fill-opacity="0.7"/>
<path d="M661.892 843.212L716.572 785.143L796.414 817.489L754.934 837.509L755.283 874.433L726.144 818.153L661.892 843.212Z" fill="white" fill-opacity="0.7"/>
<path d="M725.991 841.2L713.331 918.453L786.158 961.404L777.028 917.13L806.02 895.383L744.772 906.23L725.991 841.2Z" fill="white" fill-opacity="0.7"/>
<path d="M987.967 730.774L1011.06 845.132L904.953 913.091L916.122 846.654L871.753 815.857L963.563 828.652L987.967 730.774Z" fill="white" fill-opacity="0.7"/>
<path d="M607.065 746.997L555.172 849.408L640.971 856.685L607.065 746.997Z" fill="white" fill-opacity="0.7"/>
<path d="M651.486 843.694L695.102 767.318L621.356 761.064L651.486 843.694Z" fill="white" fill-opacity="0.7"/>
<path d="M936.082 906.534L1020.63 930.773L1009.2 857.65L936.082 906.534Z" fill="white" fill-opacity="0.7"/>
<path d="M820.442 886.211L891.967 937.394L905.715 864.671L820.442 886.211Z" fill="white" fill-opacity="0.7"/>
<path d="M309.798 942.334L269.36 923.861L297.779 899.532L309.798 942.334Z" fill="white" fill-opacity="0.7"/>
<path d="M1290.16 857.41L1376.53 832.486L1417.59 863.598L1331.01 878.367L1290.25 908.891L1290.16 857.41Z" fill="white" fill-opacity="0.7"/>
<path d="M1214.35 932.671L1063.24 937.512L1009 869.569L1156.29 881.419L1235.27 848.453L1214.35 932.671Z" fill="white" fill-opacity="0.7"/>
<path d="M1178.89 855.212L1233.57 797.143L1313.41 829.489L1271.93 849.509L1272.28 886.433L1243.14 830.153L1178.89 855.212Z" fill="white" fill-opacity="0.7"/>
<path d="M1242.99 853.2L1230.33 930.453L1303.16 973.404L1294.03 929.13L1323.02 907.383L1261.77 918.23L1242.99 853.2Z" fill="white" fill-opacity="0.7"/>
<path d="M1504.97 742.774L1528.06 857.132L1421.95 925.091L1433.12 858.654L1388.75 827.857L1480.56 840.652L1504.97 742.774Z" fill="white" fill-opacity="0.7"/>
<path d="M1124.06 758.997L1072.17 861.408L1157.97 868.685L1124.06 758.997Z" fill="white" fill-opacity="0.7"/>
<path d="M1168.49 855.694L1212.1 779.318L1138.36 773.064L1168.49 855.694Z" fill="white" fill-opacity="0.7"/>
<path d="M1424.72 930.884L1509.26 955.122L1497.83 882L1424.72 930.884Z" fill="white" fill-opacity="0.7"/>
<path d="M1337.44 898.211L1408.97 949.394L1422.72 876.671L1337.44 898.211Z" fill="white" fill-opacity="0.7"/>
<path d="M1061.74 854.819L1099.91 773.427L1075.62 728L1047.45 811.191L1010.91 846.651L1061.74 854.819Z" fill="white" fill-opacity="0.7"/>
<path d="M1346.8 954.334L1306.36 935.861L1334.78 911.532L1346.8 954.334Z" fill="white" fill-opacity="0.7"/>
<path d="M1040 976C1092.5 624 1326 764 1338.5 679" stroke="#CAB8FF" stroke-width="4"/>
<path d="M188 367C222.288 422.987 524.762 439.368 454 749C446.333 790.167 430.4 871 392 933" stroke="#CAB8FF" stroke-width="4"/>
</svg>
